<svg width="40" height="40" viewBox="0 0 40 40" fill="none" xmlns="http://www.w3.org/2000/svg">
<path d="M32.5122 20.2827C32.5122 20.0758 32.43 19.8773 32.2837 19.7311L25.2628 12.7102C25.162 12.6094 25.04 12.5453 24.9116 12.5112C25.0227 11.0753 24.3743 9.39523 24.0325 8.62508C24.9339 7.7093 25.4913 6.45406 25.4913 5.0707C25.4913 2.27477 23.2165 0 20.4207 0C17.6248 0 15.35 2.27477 15.35 5.07062C15.35 6.35375 15.8301 7.52625 16.6188 8.42031C15.5875 9.22383 13.435 10.9532 11.6781 12.7101C9.09747 15.2904 9.86153 21.6691 9.89543 21.9395C9.92895 22.2077 10.0989 22.4397 10.3449 22.552C10.5906 22.6652 10.877 22.642 11.1022 22.4919L13.4425 20.9316C13.6215 20.8124 13.7886 20.6239 13.8244 20.4117C13.8305 20.3755 14.2704 17.3229 16.2206 15.5562V23.2038L11.577 31.6352C10.0709 34.6473 8.23208 38.0211 7.80012 38.4534C7.41122 38.8423 7.43606 39.2777 7.59958 39.5554C7.73708 39.7893 7.8552 39.9999 8.49583 39.9999C9.20356 39.9999 10.54 39.7424 13.227 38.9749C13.455 38.9098 13.64 38.7441 13.7311 38.5251C13.7685 38.4354 17.3579 29.8459 19.6356 26.5457C20.6432 27.1841 21.7949 27.7686 22.9621 28.0604C25.6307 28.7273 27.0517 33.0366 27.0517 35.8882C27.0517 39.1118 27.8998 39.7921 28.6117 39.7921H30.952C31.3828 39.7921 31.7321 39.4394 31.7321 39.0086C31.7321 37.4144 31.6906 29.3782 30.8697 27.7365C30.1106 26.2186 26.5228 23.693 25.4208 22.9419C25.2195 21.8063 25.0354 20.6159 24.8847 19.4776C26.491 20.4648 28.952 21.843 30.1719 21.843C32.4855 21.843 32.5122 20.3463 32.5122 20.2827ZM20.4207 1.56023C22.3565 1.56023 23.9311 3.13492 23.9311 5.0707C23.9311 7.00648 22.3565 8.58117 20.4207 8.58117C18.4849 8.58117 16.9102 7.00648 16.9102 5.0707C16.9102 3.13484 18.4849 1.56023 20.4207 1.56023ZM12.4364 37.5763C11.5245 37.8295 10.544 38.0771 9.77879 38.2428C10.9086 36.3462 12.5251 33.1367 12.9144 32.3577L17.1166 24.6537C17.4441 24.9396 17.8653 25.2893 18.3538 25.6573C16.216 28.7591 13.1491 35.8909 12.4364 37.5763ZM29.4741 28.436C29.9236 29.3347 30.1422 34.5265 30.1689 38.232H28.9008C28.7991 38.037 28.6117 37.3723 28.6117 35.8882C28.6117 32.5578 27.0213 27.4577 23.3855 26.5484C20.9755 25.9463 18.3658 23.768 17.7807 23.0691V14.0418C17.7807 13.7713 17.5954 13.5203 17.3657 13.3782C17.1356 13.2361 16.8254 13.2235 16.5839 13.3439C13.6296 14.8211 12.5754 18.6397 12.319 19.8129L11.347 20.4573C11.2567 18.3894 11.4253 15.1719 12.784 13.8131C14.635 11.962 17.0161 10.0847 17.8529 9.43945C18.6068 9.88461 19.4842 10.1412 20.4214 10.1412C21.2573 10.1412 22.0454 9.93664 22.7413 9.57687C23.1627 10.6234 23.603 12.174 23.2335 12.9127C22.4019 14.5761 23.5671 21.4694 23.9438 23.5423C23.9815 23.7506 24.1025 23.9363 24.2785 24.0537C26.0215 25.216 28.9732 27.4343 29.4741 28.436ZM24.6505 17.4822C24.5083 16.0648 24.4482 14.8691 24.5118 14.1655L30.6 20.2537C30.4888 20.2709 30.3482 20.2827 30.1719 20.2827C29.305 20.2827 26.5235 18.7045 24.6505 17.4822Z" fill="#FFC887"/>
</svg>
