<svg width="90" height="90" viewBox="0 0 90 90" fill="none" xmlns="http://www.w3.org/2000/svg">
<path d="M83.9319 20.7385H55.5469V6.06814C55.5469 2.72215 52.8247 0 49.4787 0H36.2109C35.2403 0 34.4531 0.787148 34.4531 1.75781C34.4531 2.72848 35.2403 3.51562 36.2109 3.51562H49.4787C50.8862 3.51562 52.0312 4.66066 52.0312 6.06814V11.3669H3.51562V6.06814C3.51562 4.66066 4.66066 3.51562 6.06814 3.51562H20.3857C21.3564 3.51562 22.1435 2.72848 22.1435 1.75781C22.1435 0.787148 21.3564 0 20.3857 0H6.06814C2.72215 0 0 2.72215 0 6.06814V56.1586C0 58.8825 1.80439 61.1926 4.28045 61.9576V63.5229C4.28045 66.6872 6.85494 69.2615 10.019 69.2615C13.1831 69.2615 15.7576 66.687 15.7576 63.5229V62.2266H34.4531V76.8971C34.4531 79.621 36.2575 81.9311 38.7336 82.6961V84.2614C38.7336 87.4257 41.3081 90 44.4721 90C47.6362 90 50.2107 87.4255 50.2107 84.2614V82.9652H74.2655V84.2614C74.2655 87.4257 76.84 90 80.004 90C83.1681 90 85.7426 87.4255 85.7426 84.2614V82.6891C88.207 81.9169 90 79.6124 90 76.8971V26.8066C90 23.4608 87.2779 20.7385 83.9319 20.7385ZM3.51562 14.8823H28.5757L4.96283 38.4956L3.51562 37.0484V14.8823ZM12.2423 63.5228H12.2421C12.2421 64.7487 11.2449 65.7457 10.0192 65.7457C8.79346 65.7457 7.79625 64.7485 7.79625 63.5228V62.2266H12.2423V63.5228ZM34.4531 50.3227H20.3857C19.415 50.3227 18.6279 51.1098 18.6279 52.0805C18.6279 53.0511 19.415 53.8383 20.3857 53.8383H34.4531V58.7109H6.06814C4.66066 58.7109 3.51562 57.5659 3.51562 56.1584V42.0202L6.68057 45.1851C7.01033 45.5147 7.45734 45.7 7.92352 45.7H34.4531V50.3227ZM34.4531 26.8066V42.1843H22.6285L29.6288 35.184C30.3152 34.4976 30.3152 33.3846 29.6288 32.6979C28.9422 32.0117 27.8295 32.0117 27.1427 32.6979L17.6563 42.1843H8.65178L7.44891 40.9815L33.5479 14.8823H52.0312V20.7385H40.5213C37.1754 20.7385 34.4531 23.4606 34.4531 26.8066ZM50.1451 50.9908C50.4884 51.3339 50.9382 51.5057 51.3881 51.5057C51.8379 51.5057 52.2877 51.3339 52.631 50.9908L68.0008 35.621H79.4115L52.1095 62.923H43.1047L37.9688 57.7869V35.621H63.0288L50.1451 48.5047C49.4587 49.1912 49.4587 50.3042 50.1451 50.9908ZM46.6954 84.2614C46.6952 85.4873 45.698 86.4844 44.4723 86.4844C43.2466 86.4844 42.2494 85.4872 42.2494 84.2614V82.9652H46.6954V84.2614ZM82.2273 84.2614H82.2271C82.2271 85.4873 81.2299 86.4844 80.0042 86.4844C78.7785 86.4844 77.7813 85.4872 77.7813 84.2614V82.9652H82.2273V84.2614ZM86.4844 76.8971C86.4844 78.3046 85.3393 79.4494 83.9319 79.4494H40.5213C39.1138 79.4494 37.9688 78.3044 37.9688 76.8969V62.7587L41.1337 65.9236C41.4635 66.2532 41.9105 66.4385 42.3766 66.4385H82.0635C82.5296 66.4385 82.9767 66.2532 83.3064 65.9236L86.4844 62.746V76.8971ZM86.4844 57.774L81.3354 62.923H57.0814L84.3836 35.621H86.4844V57.774ZM86.4844 32.1054H37.9688V26.8066C37.9688 25.3992 39.1138 24.2541 40.5213 24.2541H83.932C85.3393 24.2541 86.4844 25.3992 86.4844 26.8066V32.1054Z" fill="#FFC887"/>
<path d="M48.0709 53.0648C47.7439 52.7379 47.2922 52.5498 46.8281 52.5498C46.3658 52.5498 45.9123 52.7377 45.5855 53.0648C45.2586 53.3918 45.0703 53.8436 45.0703 54.3076C45.0703 54.7699 45.2584 55.2234 45.5855 55.5502C45.9123 55.8773 46.366 56.0654 46.8281 56.0654C47.2906 56.0654 47.7439 55.8773 48.0709 55.5502C48.3996 55.2234 48.5859 54.7699 48.5859 54.3076C48.5859 53.8434 48.3996 53.3918 48.0709 53.0648Z" fill="#FFC887"/>
<path d="M69.6241 71.0613H54.8379C53.8672 71.0613 53.0801 71.8484 53.0801 72.8191C53.0801 73.7898 53.8672 74.5769 54.8379 74.5769H69.6241C70.5947 74.5769 71.3819 73.7898 71.3819 72.8191C71.3819 71.8484 70.5947 71.0613 69.6241 71.0613Z" fill="#FFC887"/>
<path d="M46.9764 71.5768C46.6494 71.2499 46.1977 71.0618 45.7336 71.0618C45.2713 71.0618 44.8195 71.2499 44.4908 71.5768C44.164 71.9038 43.9775 72.3573 43.9775 72.8196C43.9775 73.2819 44.164 73.7354 44.4908 74.0623C44.8195 74.3891 45.2713 74.5774 45.7336 74.5774C46.1977 74.5774 46.6512 74.3893 46.9764 74.0623C47.3049 73.7354 47.493 73.2819 47.493 72.8196C47.493 72.3573 47.3049 71.9038 46.9764 71.5768Z" fill="#FFC887"/>
<path d="M79.9487 71.5768C79.6219 71.2499 79.1684 71.0618 78.7061 71.0618C78.2437 71.0618 77.7902 71.2499 77.4633 71.5768C77.1363 71.9038 76.9482 72.3573 76.9482 72.8196C76.9482 73.2819 77.1362 73.7354 77.4633 74.0623C77.7902 74.3891 78.2437 74.5774 78.7061 74.5774C79.1684 74.5774 79.6219 74.3893 79.9487 74.0623C80.2756 73.7354 80.4639 73.2819 80.4639 72.8196C80.4639 72.3573 80.2758 71.9038 79.9487 71.5768Z" fill="#FFC887"/>
<path d="M29.6303 0.515039C29.3016 0.188086 28.85 0 28.3857 0C27.9234 0 27.4719 0.18791 27.1431 0.515039C26.8162 0.841992 26.6279 1.29551 26.6279 1.75781C26.6279 2.22012 26.816 2.67363 27.1431 3.00041C27.4719 3.32754 27.9236 3.51562 28.3857 3.51562C28.85 3.51562 29.3016 3.32754 29.6303 3.00041C29.9572 2.67363 30.1455 2.22012 30.1455 1.75781C30.1455 1.29551 29.9574 0.841992 29.6303 0.515039Z" fill="#FFC887"/>
<path d="M12.5223 50.8373C12.1953 50.5104 11.7436 50.3223 11.2795 50.3223C10.8189 50.3223 10.3654 50.5102 10.0367 50.8373C9.70994 51.1641 9.52344 51.6176 9.52344 52.0801C9.52344 52.5424 9.70994 52.9959 10.0367 53.3227C10.3654 53.6496 10.8189 53.8379 11.2795 53.8379C11.7436 53.8379 12.1953 53.6498 12.5223 53.3227C12.8508 52.9959 13.0389 52.5424 13.0389 52.0801C13.0389 51.6176 12.8508 51.1641 12.5223 50.8373Z" fill="#FFC887"/>
</svg>
