<svg width="36" height="36" viewBox="0 0 36 36" fill="none" xmlns="http://www.w3.org/2000/svg">
<path d="M18 23.1173C19.1977 23.1173 20.1719 22.143 20.1719 20.9453C20.1719 19.7477 19.1977 18.7734 18 18.7734C16.8023 18.7734 15.8281 19.7477 15.8281 20.9453C15.8281 22.143 16.8023 23.1173 18 23.1173Z" fill="#FFC984"/>
<path d="M36 13.0909C36 11.8932 35.0257 10.919 33.8281 10.919C32.6304 10.919 31.6561 11.8932 31.6561 13.0909C31.6561 13.4794 31.7599 13.8435 31.9394 14.1594L29.9794 16.1194C29.3949 14.7437 29.1084 12.6225 29.031 11.0007C29.6418 10.6158 30.0496 9.9373 30.0496 9.16361C30.0496 7.96603 29.0753 6.99173 27.8777 6.99173C26.68 6.99173 25.7057 7.96603 25.7057 9.16361C25.7057 9.70336 25.9049 10.1966 26.2318 10.5769C24.9634 12.7615 23.1924 14.8643 22.0932 16.0832C21.1272 14.0676 20.0381 10.0567 19.3627 6.92518C19.8556 6.52676 20.1719 5.91803 20.1719 5.23633C20.1719 4.03864 19.1977 3.06445 18 3.06445C16.8023 3.06445 15.8281 4.03864 15.8281 5.23633C15.8281 5.91803 16.1444 6.52676 16.6373 6.92518C15.9623 10.0569 14.8732 14.0685 13.9067 16.084C12.8081 14.8662 11.0379 12.7651 9.76812 10.5769C10.0952 10.1966 10.2942 9.70336 10.2942 9.16361C10.2942 7.96603 9.32 6.99173 8.1223 6.99173C6.92473 6.99173 5.95042 7.96603 5.95042 9.16361C5.95042 9.93779 6.35855 10.6163 6.9697 11.0011C6.89345 12.6228 6.60727 14.7439 6.02133 16.1201L4.06061 14.1595C4.24 13.8436 4.34376 13.4795 4.34376 13.091C4.34376 11.8933 3.36958 10.9191 2.17188 10.9191C0.974303 10.919 0 11.8933 0 13.0909C0 13.9685 0.524121 14.7242 1.27503 15.0666C2.04497 18.9766 3.06461 24.5853 3.06461 25.8545V31.7455C3.06461 32.4028 3.59745 32.9356 4.25455 32.9356H31.7455C32.4028 32.9356 32.9355 32.4028 32.9355 31.7455V25.8545C32.9355 24.5855 33.9549 18.9767 34.7253 15.0666C35.4759 14.7242 36 13.9686 36 13.0909ZM5.37661 18.8417C5.84145 19.3063 6.59479 19.3063 7.05976 18.8417C8.18933 17.7118 8.76752 15.6855 9.06327 13.8666C10.9886 16.5865 13.1101 18.7205 13.2312 18.8417C13.696 19.3063 14.4493 19.3063 14.9143 18.8417C16.1131 17.6428 17.2118 14.3592 18 11.4335C18.7882 14.3592 19.8869 17.6429 21.0857 18.8417C21.309 19.0647 21.6116 19.1902 21.9273 19.1902C22.2429 19.1902 22.5456 19.0647 22.7687 18.8417C22.8898 18.7205 25.0113 16.5865 26.9366 13.8666C27.2325 15.6855 27.8105 17.7118 28.9401 18.8417C29.4051 19.3063 30.1584 19.3063 30.6233 18.8417L31.8042 17.6606C31.3624 20.0251 30.8527 22.9102 30.6478 24.6646H5.35212C5.14715 22.91 4.63745 20.0251 4.19576 17.6606L5.37661 18.8417ZM30.5554 30.5554H5.44461V27.0446H30.5554V30.5554Z" fill="#FFC984"/>
</svg>
