<svg width="24" height="24" viewBox="0 0 24 24" fill="none" xmlns="http://www.w3.org/2000/svg">
<path d="M11.9996 24C5.38279 24 0 18.6172 0 11.9996C0 5.38356 5.38279 0 11.9996 0C18.6164 0 23.9992 5.38356 23.9992 11.9996C24 18.6172 18.6164 24 11.9996 24ZM11.9996 1.37158C6.13928 1.37158 1.37158 6.13928 1.37158 11.9996C1.37158 17.8607 6.13928 22.6284 11.9996 22.6284C17.8599 22.6284 22.6276 17.8607 22.6276 11.9996C22.6284 6.13928 17.8607 1.37158 11.9996 1.37158Z" fill="#FFC887"/>
<path d="M15.6803 16.3655C15.5042 16.3655 15.3295 16.2991 15.1951 16.1646L11.5154 12.4849C11.3863 12.3559 11.3145 12.182 11.3145 11.9996V4.21446C11.3145 3.83582 11.6212 3.52905 12.0006 3.52905C12.3793 3.52905 12.686 3.83505 12.686 4.21446V11.7161L16.1648 15.1949C16.433 15.463 16.433 15.8973 16.1648 16.1646C16.0304 16.2991 15.855 16.3655 15.6803 16.3655Z" fill="#FFC887"/>
</svg>
