<svg width="36" height="36" viewBox="0 0 36 36" fill="none" xmlns="http://www.w3.org/2000/svg">
<path d="M31.177 14.6673C31.0576 13.737 30.4945 12.9394 29.6329 12.4791L24.1557 9.55371C24.193 9.33398 24.2133 5.27344 24.2133 5.27344C24.2133 2.36563 21.8477 0 18.9399 0H17.1118C14.204 0 11.8383 2.36563 11.8383 5.27344C11.8383 5.27344 11.8587 9.33398 11.8963 9.55371L6.41879 12.4794C5.55719 12.9394 4.99441 13.737 4.87466 14.6673C4.75766 15.5761 5.0889 16.4655 5.78323 17.1079L6.05047 17.3551C6.66708 17.9253 7.40536 18.2269 8.24499 18.251C9.36258 18.2834 10.3486 19.0613 10.6422 20.1426C11.0646 21.6961 12.2874 22.8167 13.8071 23.1205V25.3125H13.3852C12.8029 25.3125 12.3305 25.7846 12.3305 26.3672V28.4763C12.3305 29.1151 11.8312 29.6397 11.1937 29.6705C9.50485 29.7521 8.1821 31.1424 8.1821 32.8357C8.1821 34.5806 9.60153 36 11.3464 36H24.7053C26.4502 36 27.8696 34.5784 27.8696 32.831C27.8696 31.1402 26.5468 29.7521 24.858 29.6705C24.2205 29.6397 23.7212 29.1151 23.7212 28.4763V26.3672C23.7212 25.7846 23.249 25.3125 22.6665 25.3125H22.2446V23.1205C23.7646 22.8167 24.9873 21.6961 25.4095 20.1426C25.7034 19.0613 26.6891 18.2834 27.807 18.251C28.6466 18.2269 29.3849 17.9253 30.0012 17.3551L30.2685 17.1079C30.9628 16.4655 31.294 15.5759 31.177 14.6673ZM13.9477 7.09552C14.1419 7.11969 14.3377 7.13287 14.5352 7.13287C15.908 7.13287 17.1467 6.55225 18.0212 5.62445C18.9105 6.57285 20.1652 7.13672 21.5165 7.13672C21.714 7.13672 21.9098 7.12326 22.104 7.09937V8.88272C22.104 9.71713 21.4929 10.6828 20.4269 11.5321C19.3621 12.3805 18.3217 12.7474 18.0258 12.7474C17.73 12.7474 16.6896 12.3805 15.6248 11.5321C14.5588 10.6831 13.9477 9.71741 13.9477 8.88272V7.09552ZM22.0886 4.965C21.9016 5.00592 21.7101 5.02734 21.5165 5.02734C20.5211 5.02734 19.62 4.48077 19.155 3.6167C19.2676 3.20966 19.3291 2.78146 19.3291 2.33899C19.3291 2.27032 19.3272 2.20193 19.3244 2.13354C20.7875 2.3118 21.9455 3.49146 22.0886 4.965ZM17.1118 2.10938H17.209C17.2156 2.18573 17.2197 2.26236 17.2197 2.33926C17.2197 3.8194 16.0156 5.0235 14.5352 5.0235C14.3416 5.0235 14.1504 5.00208 13.9634 4.96143C14.1205 3.36264 15.4723 2.10938 17.1118 2.10938ZM24.7563 31.7774C25.3194 31.8046 25.7602 32.2674 25.7602 32.831C25.7602 33.4152 25.287 33.8906 24.7053 33.8906H11.3464C10.7647 33.8906 10.2915 33.4174 10.2915 32.8357C10.2915 32.2693 10.7326 31.8046 11.2953 31.7774C13.0587 31.6923 14.4399 30.2421 14.4399 28.4763V27.4219H21.6118V28.4763C21.6118 30.2421 22.993 31.6923 24.7563 31.7774ZM15.9165 25.3125V23.2031H20.1352V25.3125H15.9165ZM28.8358 15.5594L28.5689 15.8069C28.328 16.0296 28.0739 16.1331 27.7457 16.1428C25.7069 16.2018 23.9093 17.619 23.3737 19.5894C23.1254 20.5032 22.3531 21.0938 21.4063 21.0938H14.6454C13.6986 21.0938 12.9263 20.5032 12.678 19.5894C12.1424 17.619 10.3448 16.2015 8.30597 16.1425C7.97775 16.1331 7.72397 16.0296 7.48309 15.8066L7.21585 15.5594C7.02606 15.3839 6.93762 15.1628 6.96673 14.9365C6.99832 14.6917 7.16064 14.4742 7.4125 14.3399L12.7208 11.5046C14.098 13.5181 16.7347 14.8568 18.0258 14.8568C19.317 14.8568 21.9537 13.5181 23.3309 11.5046L28.6392 14.3399C28.8911 14.4745 29.0534 14.6917 29.085 14.9365C29.1141 15.1628 29.0256 15.3842 28.8358 15.5594Z" fill="#FFC984"/>
</svg>
