<svg width="60" height="60" viewBox="0 0 60 60" fill="none" xmlns="http://www.w3.org/2000/svg">
<path fill-rule="evenodd" clip-rule="evenodd" d="M27.5351 24.819C27.9256 24.4285 28.5588 24.4285 28.9493 24.819L33.1925 29.0623C33.4215 29.2912 33.5162 29.6035 33.4767 29.9014C33.4657 29.9847 33.4442 30.0668 33.4122 30.1457C33.3634 30.2661 33.2902 30.3789 33.1925 30.4766L28.949 34.7201C28.5584 35.1107 27.9253 35.1107 27.5347 34.7201C27.1442 34.3296 27.1442 33.6965 27.5347 33.3059L30.1423 30.6983H1.41406C0.861778 30.6983 0.414062 30.2506 0.414062 29.6983C0.414062 29.1461 0.861778 28.6983 1.41406 28.6983H30.0002L27.5351 26.2332C27.1446 25.8427 27.1446 25.2095 27.5351 24.819Z" fill="white"/>
<path fill-rule="evenodd" clip-rule="evenodd" d="M16.2632 43.1335C18.9204 45.7907 22.3059 47.6003 25.9915 48.3334C29.6772 49.0665 33.4974 48.6903 36.9692 47.2522C40.441 45.8141 43.4084 43.3788 45.4962 40.2543C47.5839 37.1298 48.6982 33.4563 48.6982 29.6985C48.6982 25.9406 47.5839 22.2672 45.4962 19.1426C43.4084 16.0181 40.441 13.5828 36.9692 12.1448C33.4974 10.7067 29.6772 10.3304 25.9915 11.0636C22.3059 11.7967 18.9204 13.6063 16.2632 16.2635L14.849 14.8492C17.7859 11.9123 21.5277 9.91228 25.6013 9.10199C29.6749 8.2917 33.8973 8.70757 37.7346 10.297C41.5718 11.8864 44.8516 14.5781 47.1591 18.0315C49.4666 21.4849 50.6982 25.5451 50.6982 29.6985C50.6982 33.8519 49.4666 37.912 47.1591 41.3655C44.8516 44.8189 41.5718 47.5105 37.7346 49.1C33.8973 50.6894 29.6749 51.1053 25.6013 50.295C21.5277 49.4847 17.7859 47.4846 14.849 44.5477L16.2632 43.1335Z" fill="white"/>
</svg>
