<svg width="32" height="32" viewBox="0 0 32 32" fill="none" xmlns="http://www.w3.org/2000/svg">
<path d="M23.3537 0H8.64631C3.87875 0 0 3.87875 0 8.64631V23.3537C0 28.1213 3.87875 32 8.64631 32H23.3537C28.1213 32 32 28.1213 32 23.3537V8.64631C32 3.87875 28.1213 0 23.3537 0ZM29.4147 23.3537C29.4147 26.6957 26.6958 29.4147 23.3537 29.4147H8.64631C5.30425 29.4147 2.58525 26.6958 2.58525 23.3537V8.64631C2.58525 5.30425 5.30419 2.58525 8.64631 2.58525H23.3537C26.6957 2.58525 29.4147 5.30419 29.4147 8.64631V23.3537Z" fill="#FFC984"/>
<path d="M23.1618 14.8838C22.9343 13.3497 22.2344 11.9592 21.1377 10.8625C20.041 9.76585 18.6505 9.06585 17.1164 8.83841C16.4179 8.73485 15.7097 8.73485 15.0112 8.83841C13.1152 9.1196 11.4423 10.1222 10.3005 11.6617C9.15868 13.2011 8.68462 15.0931 8.96581 16.989C9.247 18.8849 10.2496 20.5578 11.7891 21.6997C13.0388 22.6267 14.5207 23.1134 16.0486 23.1134C16.4028 23.1134 16.7596 23.0873 17.1163 23.0343C19.0123 22.7532 20.6852 21.7505 21.8271 20.2111C22.9689 18.6717 23.443 16.7798 23.1618 14.8838ZM16.7371 20.477C15.5243 20.6572 14.314 20.3537 13.3292 19.6233C12.3444 18.8928 11.703 17.8226 11.5232 16.6098C11.3433 15.397 11.6465 14.1867 12.3769 13.2018C13.1074 12.217 14.1776 11.5757 15.3905 11.3958C15.6139 11.3627 15.8388 11.3461 16.0637 11.3461C16.2887 11.3461 16.5137 11.3627 16.7371 11.3958C18.7515 11.6945 20.3057 13.2487 20.6044 15.2632C20.9757 17.7668 19.2409 20.1058 16.7371 20.477Z" fill="#FFC984"/>
<path d="M26.1462 6.74287C25.8151 6.41187 25.3569 6.22217 24.8891 6.22217C24.4213 6.22217 23.9631 6.41178 23.632 6.74287C23.301 7.07397 23.1113 7.53141 23.1113 7.99995C23.1113 8.46848 23.301 8.92592 23.632 9.25702C23.9631 9.58802 24.4213 9.77772 24.8891 9.77772C25.3569 9.77772 25.8151 9.58811 26.1462 9.25702C26.4772 8.92592 26.6669 8.4677 26.6669 7.99995C26.6669 7.5321 26.4772 7.07388 26.1462 6.74287Z" fill="#FFC984"/>
</svg>
