<svg width="36" height="36" viewBox="0 0 36 36" fill="none" xmlns="http://www.w3.org/2000/svg">
<g clip-path="url(#clip0)">
<path d="M32.3645 29.2755L28.2324 11.6457C28.2276 11.6254 28.2212 11.6062 28.2153 11.5866L28.1478 9.19111C28.1323 8.6422 27.6829 8.20537 27.1339 8.20537H23.8847L23.3414 5.72118C22.8031 3.25929 20.7059 1.53329 18.3133 1.35054C17.3365 0.509856 16.0671 0 14.6803 0C11.6042 0 9.10158 2.50262 9.10158 5.57867V8.20537H5.26971C4.72064 8.20537 4.2713 8.6422 4.25575 9.19111L3.60879 32.1663C3.60118 32.4401 3.70447 32.7054 3.8955 32.902C4.08653 33.0984 4.34889 33.2091 4.62276 33.2091H7.45943L7.88476 35.198C7.94206 35.466 8.10537 35.6992 8.33731 35.845C8.50027 35.9472 8.68741 36.0002 8.87658 36.0002C8.95688 36.0002 9.03734 35.9907 9.11663 35.9714L20.4604 33.2093H27.7808C28.0547 33.2093 28.3171 33.0984 28.5081 32.9021C28.6991 32.7057 28.8024 32.4405 28.7948 32.1664L28.7672 31.1866L31.6171 30.4927C32.1577 30.3606 32.4916 29.8175 32.3645 29.2755ZM21.3596 6.15445L21.8081 8.20537H20.2588V5.57867C20.2588 5.06864 20.1886 4.57501 20.0598 4.10539C20.6983 4.59767 21.1743 5.30717 21.3596 6.15445ZM17.1332 3.44474C17.2453 3.42023 17.3572 3.40248 17.4687 3.38896C17.9439 3.99297 18.2301 4.75235 18.2301 5.57867V8.20537H14.5403L14.4236 7.67134C14.0054 5.75904 15.2209 3.86297 17.1332 3.44474ZM11.1302 5.57867C11.1302 3.62106 12.7228 2.02861 14.6803 2.02861C14.8353 2.02861 14.9869 2.04196 15.1367 2.0614C13.0695 3.23681 11.9077 5.66235 12.4419 8.10479L12.4638 8.20537H11.1302V5.57867ZM9.65015 33.7535L9.53384 33.2091H11.8858L9.65015 33.7535ZM5.66597 31.1804L6.25579 10.2338H26.1478L26.7374 31.1804H5.66597ZM28.7087 29.1127L28.4993 21.6741L30.1599 28.7592L28.7087 29.1127Z" fill="#FFC887"/>
</g>
<defs>
<clipPath>
<rect width="36" height="36" fill="white"/>
</clipPath>
</defs>
</svg>
