<svg width="50" height="50" viewBox="0 0 50 50" fill="none" xmlns="http://www.w3.org/2000/svg">
<g clip-path="url(#clip0)">
<path d="M48.468 32.4661H44.1643C43.5764 31.6208 42.7574 30.9723 41.8224 30.5885V23.7133C42.2836 23.5775 42.7288 23.3948 43.1511 23.1659C43.7843 22.823 44.3466 22.377 44.854 21.8693C46.1788 20.4964 46.8712 18.6901 46.8033 16.7835C46.8029 16.7717 46.8021 16.7599 46.8014 16.7484L46.7926 16.6462L45.7256 3.90053C45.6703 2.86217 44.8162 2.05078 43.7744 2.05078H42.8509C42.445 2.05078 42.1162 2.37961 42.1162 2.78549C42.1162 3.19138 42.445 3.5202 42.8509 3.5202H43.7744C44.0342 3.5202 44.2471 3.72353 44.2589 3.98293C44.2593 3.99246 44.26 4.00162 44.2608 4.01077L45.1107 14.1674H34.5695L34.734 12.2051C34.753 12.1284 34.761 12.0476 34.7542 11.9644V11.9637L35.4198 4.01077C35.4206 4.00162 35.4214 3.99246 35.4218 3.98293C35.4336 3.72353 35.6461 3.5202 35.9062 3.5202H39.5714C39.9769 3.5202 40.3061 3.19138 40.3061 2.78549C40.3061 2.37961 39.9769 2.05078 39.5714 2.05078H35.9062C35.0006 2.05078 34.2377 2.6638 34.0168 3.50571C33.7959 2.6638 33.033 2.05078 32.1274 2.05078H24.2592C23.2174 2.05078 22.3633 2.86217 22.3076 3.90053L21.2322 16.748C21.2315 16.7599 21.2307 16.7717 21.2303 16.7831C21.1624 18.6901 21.8548 20.4964 23.1796 21.8693C24.0215 22.7413 25.0473 23.3635 26.1723 23.7022V30.5962C25.2453 30.9811 24.4339 31.6265 23.8499 32.4661H21.1887L21.0052 31.551C20.9255 31.1531 20.5383 30.8952 20.1405 30.975C19.7426 31.0547 19.4847 31.4419 19.5648 31.8394L19.6903 32.4661H18.1122C17.8329 32.1198 17.5175 31.8043 17.1707 31.5254C17.2432 31.1459 17.2806 30.7587 17.2806 30.3688C17.2806 29.7436 17.186 29.1401 17.0116 28.5713C17.8265 27.6531 18.4784 26.63 18.951 25.5238L19.3092 24.6853C19.5122 24.21 19.4141 23.6855 19.0586 23.349C18.7012 23.0106 18.1675 22.9416 17.6991 23.1728L16.7133 23.6599C15.892 24.0658 15.1211 24.5754 14.4123 25.1755C13.4636 24.5754 12.3413 24.2264 11.1382 24.2264C8.86116 24.2264 6.87141 25.4726 5.81055 27.3174C5.68085 27.3083 5.55077 27.3026 5.42068 27.3026C2.43187 27.3029 0 29.7344 0 32.7236C0 34.6004 0.952911 36.3113 2.51694 37.3016C2.50969 37.4245 2.50435 37.5473 2.50435 37.6713C2.50435 41.058 5.2597 43.8137 8.64677 43.8137C8.80585 43.8137 8.96263 43.8057 9.11865 43.7935C9.24644 44.6869 9.47571 45.5528 9.80644 46.3764L10.146 47.2225C10.3344 47.6921 10.7601 47.9908 11.2366 47.9908C11.2469 47.9908 11.2576 47.9908 11.2679 47.9904C11.7603 47.9767 12.1864 47.6482 12.3539 47.1535L12.7064 46.1121C13.1023 44.9429 13.3034 43.7119 13.3038 42.4534C13.3114 42.4534 13.3194 42.4538 13.327 42.4538C16.5981 42.4538 19.2795 39.8834 19.4592 36.6566H25.5219L25.6607 37.5782C25.7153 37.9425 26.0284 38.2038 26.3863 38.2038C26.4225 38.2038 26.4591 38.2011 26.4961 38.1954C26.8974 38.1351 27.174 37.7609 27.1137 37.36L27.0081 36.6566H48.468C49.313 36.6566 50 35.9692 50 35.1246V33.9981C50 33.1535 49.313 32.4661 48.468 32.4661ZM35.2005 32.4661L35.3001 31.8043C35.3603 31.403 35.0838 31.0291 34.6825 30.9689C34.2808 30.9082 33.9073 31.1848 33.847 31.5861L33.7147 32.4661H32.5371C31.9447 31.6147 31.1188 30.9635 30.1754 30.5805V23.7053C31.7406 23.2353 33.1093 22.224 34.0149 20.8553C34.2514 21.2132 34.5215 21.5534 34.8267 21.8693C35.6682 22.7413 36.694 23.3635 37.8193 23.7022V30.5885C36.8839 30.9723 36.0653 31.6208 35.4771 32.4665H35.2005V32.4661ZM39.8209 31.6612C40.6792 31.6612 41.5005 31.9542 42.1612 32.4665H37.4802C38.1409 31.9542 38.9626 31.6612 39.8209 31.6612ZM39.8209 30.1918C39.642 30.1918 39.4642 30.2013 39.2883 30.2193V23.975C39.4711 23.9891 39.6549 23.9986 39.8403 23.9986C40.0124 23.9986 40.1833 23.9902 40.353 23.978V30.2193C40.1772 30.2013 39.9994 30.1918 39.8209 30.1918ZM45.2339 15.6364L45.3358 16.8526C45.3842 18.351 44.838 19.7697 43.7965 20.8492C43.7916 20.8542 43.7866 20.8588 43.7817 20.8637C42.7376 21.9376 41.3387 22.5292 39.8403 22.5292C38.3343 22.5292 36.9293 21.9326 35.8837 20.8488C34.8446 19.7723 34.296 18.3475 34.3445 16.8526L34.4463 15.6364H45.2339ZM22.6982 16.8526L22.7997 15.6364H30.5481C30.9536 15.6364 31.2828 15.3076 31.2828 14.9021C31.2828 14.4962 30.9536 14.1674 30.5481 14.1674H22.9229L23.7728 4.01077C23.7736 4.00162 23.7743 3.99246 23.7747 3.98293C23.7865 3.72353 23.9994 3.5202 24.2592 3.5202H32.1274C32.3875 3.5202 32.6 3.72353 32.6118 3.98293C32.6122 3.99208 32.613 4.00162 32.6138 4.01077L33.2798 11.9633L33.0387 14.8403V14.8407L32.8793 16.748C32.8781 16.7599 32.8773 16.7713 32.877 16.7831C32.8468 17.6327 32.9681 18.4616 33.2283 19.2417C32.3574 21.2185 30.3677 22.5292 28.1933 22.5292C26.6876 22.5292 25.2827 21.9326 24.2371 20.8488C23.1956 19.7697 22.6494 18.351 22.6982 16.8526ZM27.6417 23.975C27.8244 23.9891 28.0079 23.9986 28.1933 23.9986C28.3653 23.9986 28.5366 23.9918 28.7064 23.9788V30.2174C28.5366 30.2006 28.3657 30.1918 28.1933 30.1918C28.0079 30.1918 27.824 30.2021 27.6417 30.2212V23.975ZM28.1933 31.6612C29.0516 31.6612 29.8733 31.9542 30.534 32.4665H25.853C26.5137 31.9542 27.335 31.6612 28.1933 31.6612ZM17.3645 24.9771L17.6464 24.8379L17.5999 24.9466C17.2741 25.7103 16.8472 26.4282 16.3303 27.0927C16.1098 26.7445 15.855 26.4198 15.5708 26.1234C16.1301 25.6752 16.7305 25.2907 17.3645 24.9771ZM11.1382 25.6958C13.715 25.6958 15.8115 27.792 15.8115 30.3688C15.8115 30.4768 15.8077 30.584 15.8005 30.6908C15.0429 30.3562 14.2067 30.1689 13.327 30.1689C12.9177 30.1689 12.5107 30.2101 12.1124 30.2898C11.277 29.8588 10.2886 29.7382 9.32312 30.0053C9.24416 30.0274 9.16939 30.0579 9.09767 30.0941C9.01108 29.9252 8.88977 29.7737 8.73604 29.6513C8.41179 29.393 7.99408 29.298 7.59048 29.3911C7.20673 29.4792 6.84357 29.6108 6.50368 29.7783C6.79512 27.4796 8.7616 25.6958 11.1382 25.6958ZM6.02417 36.417C6.02417 36.417 6.02417 36.4166 6.02379 36.4166C6.01501 36.3972 6.00471 36.3781 5.99403 36.359C5.99213 36.3556 5.99022 36.3522 5.98831 36.3487C5.97992 36.3346 5.97038 36.3209 5.96085 36.3071C5.95589 36.2999 5.95131 36.2926 5.94597 36.2854C5.94444 36.2835 5.9433 36.2816 5.94215 36.2797C5.48325 35.675 5.24063 34.9533 5.24063 34.1919C5.24063 33.2462 5.616 32.3811 6.24161 31.752C6.2809 31.7215 6.31638 31.6872 6.34842 31.6494C6.74477 31.284 7.23038 31.0085 7.77855 30.8582V34.618C7.3967 34.6924 7.13615 35.0533 7.19185 35.4424C7.24945 35.844 7.62291 36.1233 8.02307 36.0653L11.1137 35.6228C11.1988 35.6258 11.285 35.614 11.3686 35.5862L12.5965 35.4103C12.4027 36.9549 11.2125 38.1721 9.65614 38.3949C8.15163 38.6105 6.65817 37.7972 6.02417 36.417ZM9.24759 32.9388L9.98459 34.3002L9.24759 34.4055V32.9388ZM10.0601 31.3526C10.5923 31.2855 11.1191 31.4022 11.5639 31.6677C11.5856 31.683 11.6081 31.6971 11.6314 31.7101C11.961 31.9221 12.2425 32.217 12.4409 32.5836C12.6663 33.0006 12.759 33.4644 12.7186 33.923C12.6568 33.9233 12.595 33.9264 12.5328 33.9352L11.5349 34.0782L10.0601 31.3526ZM1.46942 32.7236C1.46942 30.6168 3.12653 28.8902 5.20592 28.7781C5.06973 29.2858 4.99573 29.8187 4.99573 30.3688C4.99573 30.5477 5.0045 30.7266 5.02014 30.9048C4.29192 31.7192 3.83987 32.774 3.7796 33.926C3.36494 34.4646 3.04527 35.0674 2.82936 35.7059C1.97487 34.9659 1.46942 33.8894 1.46942 32.7236ZM3.97377 37.6713C3.97377 37.175 4.05426 36.6848 4.20647 36.2186C4.34647 36.5273 4.51889 36.8225 4.72298 37.101C5.54428 38.8157 7.30362 39.8983 9.17664 39.8983C9.40437 39.8983 9.6344 39.8823 9.86443 39.8495C11.3312 39.6393 12.569 38.8084 13.3194 37.6331C13.3194 37.6457 13.3202 37.6583 13.3202 37.6713C13.3202 40.2481 11.2236 42.3443 8.64677 42.3443C6.06995 42.3443 3.97377 40.2481 3.97377 37.6713ZM11.2141 45.9389L11.1702 45.8294C10.8734 45.0905 10.6712 44.3111 10.5625 43.5062C11.0065 43.3601 11.4292 43.166 11.8225 42.9272C11.7786 43.8599 11.6093 44.7708 11.3148 45.6413L11.2141 45.9389ZM13.8329 40.9569C14.4375 40.0059 14.7896 38.879 14.7896 37.6713C14.7896 36.644 14.5359 35.6472 14.053 34.7546C14.3234 33.7963 14.2143 32.7744 13.7329 31.8844C13.6887 31.8027 13.6414 31.7238 13.5921 31.6463C16.0461 31.7844 18 33.8238 18 36.3113C18 38.7173 16.1724 40.7036 13.8329 40.9569ZM48.5306 35.1246C48.5306 35.1593 48.5027 35.1871 48.468 35.1871H19.3645C19.2837 34.7523 19.1586 34.333 18.9911 33.9355H48.468C48.5027 33.9355 48.5306 33.9638 48.5306 33.9981V35.1246Z" fill="#FFC887"/>
</g>
<defs>
<clipPath>
<rect width="50" height="50" fill="white"/>
</clipPath>
</defs>
</svg>
