<svg width="18" height="24" viewBox="0 0 18 24" fill="none" xmlns="http://www.w3.org/2000/svg">
<path fill-rule="evenodd" clip-rule="evenodd" d="M16 9V15C16 18.866 12.866 22 9 22C5.13401 22 2 18.866 2 15V9C2 5.13401 5.13401 2 9 2C12.866 2 16 5.13401 16 9ZM0 9C0 4.02944 4.02944 0 9 0C13.9706 0 18 4.02944 18 9V15C18 19.9706 13.9706 24 9 24C4.02944 24 0 19.9706 0 15V9ZM9 10C10.1046 10 11 9.10457 11 8C11 6.89543 10.1046 6 9 6C7.89543 6 7 6.89543 7 8C7 9.10457 7.89543 10 9 10Z" fill="white"/>
</svg>
