<svg width="40" height="40" viewBox="0 0 40 40" fill="none" xmlns="http://www.w3.org/2000/svg">
<g clip-path="url(#clip0)">
<path d="M39.3334 35.9998H37.3334V23.3332C37.3331 22.965 37.0344 22.6667 36.6662 22.667C36.449 22.6672 36.2454 22.7732 36.1207 22.9512L26.7874 36.2845C26.5764 36.5862 26.65 37.0019 26.9517 37.2128C27.0636 37.291 27.1968 37.333 27.3334 37.3331H36V39.3331C36 39.7013 36.2985 39.9998 36.6667 39.9998C37.0349 39.9998 37.3334 39.7013 37.3334 39.3331V37.3331H39.3334C39.7015 37.3331 40 37.0346 40 36.6665C40 36.2983 39.7015 35.9998 39.3334 35.9998ZM36 35.9998H28.6134L36 25.4478V35.9998Z" fill="#FFC887"/>
<path d="M27.333 38.6667H19.4403L26.7783 30.026C26.795 30.0062 26.8106 29.9855 26.825 29.964C28.2055 27.9209 27.7457 25.1546 25.7783 23.668C23.3863 21.9493 20.0538 22.4952 18.3351 24.8873C17.6833 25.7944 17.3328 26.8831 17.333 28C17.333 28.3682 17.6315 28.6667 17.9997 28.6667C18.3678 28.6667 18.6663 28.3682 18.6663 28C18.6661 25.7908 20.4568 23.9998 22.6659 23.9996C23.5033 23.9995 24.3195 24.2622 24.9997 24.7507C26.3778 25.8066 26.6987 27.7513 25.733 29.194L17.4917 38.902C17.2534 39.1828 17.2879 39.6034 17.5687 39.8417C17.6891 39.9439 17.8418 39.9999 17.9997 40H27.333C27.7012 40 27.9997 39.7015 27.9997 39.3334C27.9997 38.9652 27.7012 38.6667 27.333 38.6667Z" fill="#FFC887"/>
<path d="M18.0147 35.346C18.0286 34.9781 17.7415 34.6686 17.3736 34.6547C17.3735 34.6547 17.3734 34.6547 17.3733 34.6547C8.67583 34.3318 1.69508 27.3636 1.35667 18.6667H4C4.36817 18.6667 4.66667 18.3682 4.66667 18C4.66667 17.6318 4.36817 17.3333 4 17.3333H1.35667C1.69025 8.65175 8.65167 1.69058 17.3333 1.35733V3.33333C17.3333 3.7015 17.6318 4 18 4C18.3682 4 18.6667 3.7015 18.6667 3.33333V1.35733C27.2295 1.6885 34.1405 8.469 34.6347 17.024L32.0347 14.424C31.7698 14.1682 31.3478 14.1755 31.092 14.4403C30.8425 14.6987 30.8425 15.1082 31.092 15.3667L34.8133 19.088C34.8834 19.1728 34.9738 19.2386 35.076 19.2793C35.1021 19.2872 35.1286 19.2937 35.1553 19.2987C35.2011 19.3152 35.2484 19.3266 35.2967 19.3327C35.3033 19.3327 35.3093 19.3327 35.316 19.3327C35.3227 19.3327 35.3287 19.3327 35.3347 19.3327C35.3854 19.3288 35.4356 19.319 35.484 19.3033C35.5114 19.3 35.5386 19.2949 35.5653 19.288C35.6556 19.2559 35.7378 19.2045 35.806 19.1373L39.578 15.3667C39.8338 15.1018 39.8265 14.6798 39.5617 14.424C39.3033 14.1745 38.8937 14.1745 38.6353 14.424L35.9707 17.0867C35.4944 7.53083 27.615 0.0234167 18.0473 0.00933333C18.0307 0.00866667 18.0167 0 18 0C17.9833 0 17.9693 0.00866667 17.9527 0.00933333C8.0485 0.0229167 0.0229167 8.0485 0.00933333 17.9527C0.00933333 17.9693 0 17.9833 0 18C0 18.0167 0.00866667 18.0307 0.00933333 18.0473C0.0259167 27.7071 7.67092 35.6282 17.324 35.9873H17.3487C17.7069 35.9872 18.0011 35.704 18.0147 35.346Z" fill="#FFC887"/>
<path d="M26.957 9.04333C26.6967 8.78308 26.2747 8.78308 26.0144 9.04333L18.8504 16.2067C18.3091 15.9653 17.6909 15.9653 17.1497 16.2067L13.7577 12.8147C13.4929 12.5589 13.0708 12.5662 12.8151 12.8311C12.5656 13.0894 12.5656 13.499 12.8151 13.7573L16.2004 17.1427C15.7251 18.1377 16.1464 19.3297 17.1415 19.8049C17.9052 20.1697 18.816 20.0133 19.4144 19.4147C20.016 18.8182 20.1709 17.9048 19.7997 17.1433L26.957 9.986C27.2173 9.72567 27.2173 9.30367 26.957 9.04333ZM18.4719 18.4712C18.4718 18.4712 18.4718 18.4712 18.4717 18.4713C18.208 18.7234 17.7927 18.7234 17.529 18.4713C17.2686 18.211 17.2686 17.7889 17.5289 17.5285C17.7892 17.2681 18.2113 17.2681 18.4717 17.5283C18.7321 17.7887 18.7321 18.2108 18.4719 18.4712Z" fill="#FFC887"/>
</g>
<defs>
<clipPath id="clip0">
<rect width="40" height="40" fill="white"/>
</clipPath>
</defs>
</svg>
