<svg width="13" height="26" viewBox="0 0 13 26" fill="none" xmlns="http://www.w3.org/2000/svg">
<g clip-path="url(#clip0)">
<path d="M12.6968 7.15197C12.6968 3.65087 9.91681 0.80249 6.49977 0.80249C3.08272 0.80249 0.302734 3.65087 0.302734 7.15197C0.302734 10.5104 2.86211 13.2606 6.08663 13.4799V25.3538C6.08663 25.5879 6.27172 25.7771 6.49977 25.7771C6.72782 25.7771 6.9129 25.5879 6.9129 25.3538V13.4799C10.1374 13.2606 12.6968 10.5104 12.6968 7.15197ZM6.49977 12.6548C3.53841 12.6548 1.12901 10.1862 1.12901 7.15197C1.12901 4.11776 3.53841 1.64909 6.49977 1.64909C9.46112 1.64909 11.8705 4.11776 11.8705 7.15197C11.8705 10.1862 9.46112 12.6548 6.49977 12.6548Z" fill="white"/>
<path d="M4.43379 3.76587C3.52242 3.76587 2.78125 4.52535 2.78125 5.45925C2.78125 6.39314 3.52242 7.15262 4.43379 7.15262C5.34517 7.15262 6.08633 6.39314 6.08633 5.45925C6.08633 4.52535 5.34517 3.76587 4.43379 3.76587ZM4.43379 6.30593C3.9781 6.30593 3.60752 5.92619 3.60752 5.45925C3.60752 4.9923 3.9781 4.61256 4.43379 4.61256C4.88948 4.61256 5.26006 4.9923 5.26006 5.45925C5.26006 5.92619 4.88948 6.30593 4.43379 6.30593Z" fill="white"/>
</g>
<defs>
<clipPath id="clip0">
<rect width="13" height="24.9746" fill="white" transform="translate(0 0.80249)"/>
</clipPath>
</defs>
</svg>
