<svg width="25" height="25" viewBox="0 0 25 25" fill="none" xmlns="http://www.w3.org/2000/svg">
<path d="M16.4092 1.95312C16.1396 1.95312 15.9209 2.17188 15.9209 2.44141C15.9209 2.71094 16.1396 2.92969 16.4092 2.92969C16.6787 2.92969 16.8975 2.71094 16.8975 2.44141C16.8975 2.17188 16.6787 1.95312 16.4092 1.95312Z" fill="white"/>
<path d="M8.59668 1.95312C8.32715 1.95312 8.1084 2.17188 8.1084 2.44141C8.1084 2.71094 8.32715 2.92969 8.59668 2.92969C8.86621 2.92969 9.08496 2.71094 9.08496 2.44141C9.08496 2.17188 8.86621 1.95312 8.59668 1.95312Z" fill="white"/>
<path d="M22.6589 24.1741L19.4278 20.7985C20.7331 20.7518 21.7808 19.6759 21.7808 18.3594V3.87061C21.7808 3.08169 21.5051 2.31128 21.0043 1.70127C20.5032 1.09141 19.8011 0.671143 19.0277 0.518164C17.2947 0.174316 15.5204 0 13.754 0H11.1744C9.49437 0 7.74441 0.160937 5.97361 0.514844C4.38157 0.83335 3.2261 2.24307 3.2261 3.8667V18.3594C3.2261 19.687 4.29153 20.7698 5.61219 20.7994L2.34466 24.172C2.20818 24.3128 2.16922 24.5216 2.24573 24.7021C2.32215 24.8827 2.49925 25 2.69534 25H6.18655C6.3431 25 6.49012 24.925 6.58196 24.7982L8.06312 22.7539H16.9872L18.4684 24.7982C18.5602 24.925 18.7073 25 18.8638 25H22.3062C22.5017 25 22.6784 24.8833 22.7552 24.7035C22.832 24.5236 22.7941 24.3154 22.6589 24.1741ZM4.20267 18.3594V3.8667C4.20267 2.70688 5.02801 1.69995 6.16507 1.47241C7.75897 1.15386 9.44319 0.976562 11.1743 0.976562H13.7539C15.4567 0.976562 17.1671 1.14458 18.8378 1.47603C19.3903 1.58535 19.8917 1.88555 20.2495 2.32104C20.6072 2.75674 20.8042 3.30703 20.8042 3.87056V18.3594C20.8042 19.1671 20.147 19.8242 19.3393 19.8242H5.66746C4.8598 19.8242 4.20267 19.1671 4.20267 18.3594ZM5.93738 24.0234H3.84827L6.97049 20.8008H8.27234L5.93738 24.0234ZM8.77068 21.7773L9.47825 20.8008H15.5721L16.2797 21.7773H8.77068ZM19.113 24.0234L16.7781 20.8008H18.0782L21.1629 24.0234H19.113Z" fill="white"/>
<path d="M19.3389 3.90625H5.66699C5.39736 3.90625 5.17871 4.1249 5.17871 4.39453V12.5C5.17871 12.7696 5.39736 12.9883 5.66699 12.9883H19.3389C19.6085 12.9883 19.8271 12.7696 19.8271 12.5V4.39453C19.8271 4.1249 19.6085 3.90625 19.3389 3.90625ZM12.0146 12.0117H6.15527V4.88281H12.0146V12.0117ZM18.8506 12.0117H12.9912V4.88281H18.8506V12.0117Z" fill="white"/>
<path d="M14.4561 1.95312H10.5498C10.2802 1.95312 10.0615 2.17178 10.0615 2.44141C10.0615 2.71104 10.2802 2.92969 10.5498 2.92969H14.4561C14.7257 2.92969 14.9443 2.71104 14.9443 2.44141C14.9443 2.17178 14.7257 1.95312 14.4561 1.95312Z" fill="white"/>
<path d="M17.874 14.4531C16.7971 14.4531 15.9209 15.3293 15.9209 16.4062C15.9209 17.4832 16.7971 18.3594 17.874 18.3594C18.951 18.3594 19.8271 17.4832 19.8271 16.4062C19.8271 15.3293 18.951 14.4531 17.874 14.4531ZM17.874 17.3828C17.3355 17.3828 16.8975 16.9447 16.8975 16.4062C16.8975 15.8678 17.3355 15.4297 17.874 15.4297C18.4125 15.4297 18.8506 15.8678 18.8506 16.4062C18.8506 16.9447 18.4125 17.3828 17.874 17.3828Z" fill="white"/>
<path d="M7.13183 14.4531C6.05488 14.4531 5.17871 15.3293 5.17871 16.4062C5.17871 17.4832 6.05493 18.3594 7.13183 18.3594C8.20878 18.3594 9.08495 17.4832 9.08495 16.4062C9.08495 15.3293 8.20878 14.4531 7.13183 14.4531ZM7.13183 17.3828C6.59336 17.3828 6.15527 16.9447 6.15527 16.4062C6.15527 15.8678 6.59336 15.4297 7.13183 15.4297C7.67031 15.4297 8.10839 15.8678 8.10839 16.4062C8.10839 16.9447 7.67031 17.3828 7.13183 17.3828Z" fill="white"/>
<path d="M14.4561 14.9414H10.5498C10.2802 14.9414 10.0615 15.1601 10.0615 15.4297C10.0615 15.6993 10.2802 15.918 10.5498 15.918H14.4561C14.7257 15.918 14.9443 15.6993 14.9443 15.4297C14.9443 15.1601 14.7257 14.9414 14.4561 14.9414Z" fill="white"/>
<path d="M14.4561 16.8945H10.5498C10.2802 16.8945 10.0615 17.1132 10.0615 17.3828C10.0615 17.6524 10.2802 17.8711 10.5498 17.8711H14.4561C14.7257 17.8711 14.9443 17.6524 14.9443 17.3828C14.9443 17.1132 14.7257 16.8945 14.4561 16.8945Z" fill="white"/>
</svg>
