<svg width="16" height="17" viewBox="0 0 16 17" fill="none" xmlns="http://www.w3.org/2000/svg">
<g clip-path="url(#clip0)">
<path d="M7.99959 8.82505C9.77852 8.82505 11.2208 7.07337 11.2208 4.91255C11.2208 2.75168 10.7473 1 7.99959 1C5.25192 1 4.77832 2.75168 4.77832 4.91255C4.77832 7.07337 6.22056 8.82505 7.99959 8.82505Z" fill="#FFC887"/>
<path d="M1.91567 14.799C1.91512 14.6672 1.91457 14.7619 1.91567 14.799V14.799Z" fill="#FFC887"/>
<path d="M14.084 14.9019C14.0857 14.8658 14.0846 14.6517 14.084 14.9019V14.9019Z" fill="#FFC887"/>
<path d="M14.0773 14.641C14.0176 10.8768 13.526 9.80422 9.76402 9.12527C9.76402 9.12527 9.23446 9.80006 8.00017 9.80006C6.76589 9.80006 6.23624 9.12527 6.23624 9.12527C2.51533 9.79682 1.99382 10.8535 1.92525 14.5187C1.91963 14.818 1.91702 14.8338 1.91602 14.799C1.91624 14.8641 1.91652 14.9845 1.91652 15.1945C1.91652 15.1945 2.81215 17 8.00017 17C13.1881 17 14.0838 15.1945 14.0838 15.1945C14.0838 15.0596 14.0839 14.9658 14.0841 14.902C14.0831 14.9235 14.081 14.8818 14.0773 14.641Z" fill="#FFC887"/>
</g>
<defs>
<clipPath id="clip0">
<rect width="16" height="17" fill="white"/>
</clipPath>
</defs>
</svg>
