<svg width="16" height="16" viewBox="0 0 16 16" fill="none" xmlns="http://www.w3.org/2000/svg">
<g clip-path="url(#clip0)">
<path d="M15.0891 2.62506C14.8631 2.39887 14.5951 2.28576 14.2856 2.28576H13.1428V1.42858C13.1428 1.0358 13.0028 0.699468 12.7231 0.419706C12.4432 0.139944 12.1071 0 11.7141 0H11.1428C10.7499 0 10.4136 0.139944 10.1338 0.419737C9.85399 0.699468 9.71411 1.03583 9.71411 1.42861V2.28579H6.28572V1.42861C6.28572 1.03583 6.14577 0.6995 5.86598 0.419737C5.58625 0.139944 5.24995 0 4.85701 0H4.28563C3.89279 0 3.55645 0.139944 3.27666 0.419737C2.99693 0.699468 2.85695 1.03583 2.85695 1.42861V2.28579H1.7142C1.4046 2.28579 1.13679 2.3989 0.910594 2.62509C0.684401 2.85126 0.571289 3.1192 0.571289 3.4287V14.8573C0.571289 15.1666 0.684401 15.4344 0.910594 15.6607C1.13676 15.8869 1.40457 16 1.7142 16H14.2853C14.5948 16 14.8629 15.8869 15.0889 15.6607C15.3151 15.4345 15.4282 15.1665 15.4282 14.8573V3.42867C15.4282 3.11907 15.3152 2.85126 15.0891 2.62506ZM10.8571 1.42871C10.8571 1.3453 10.8837 1.27679 10.9372 1.22334C10.9907 1.16984 11.0592 1.14304 11.1426 1.14304H11.7139C11.7974 1.14304 11.8657 1.16974 11.9194 1.22334C11.9729 1.27688 11.9996 1.3454 11.9996 1.42871V4.00004C11.9996 4.08342 11.9729 4.15181 11.9194 4.20541C11.8656 4.25885 11.7974 4.28572 11.7139 4.28572H11.1426C11.0592 4.28572 10.9907 4.25898 10.9372 4.20541C10.8837 4.15178 10.8571 4.08342 10.8571 4.00004V1.42871ZM3.99996 1.42871C3.99996 1.3453 4.0267 1.27679 4.08027 1.22334C4.13387 1.16984 4.20226 1.14304 4.28563 1.14304H4.85701C4.94041 1.14304 5.00893 1.16974 5.06237 1.22334C5.11588 1.27688 5.14274 1.3454 5.14274 1.42871V4.00004C5.14274 4.08342 5.11601 4.1519 5.06237 4.20541C5.0088 4.25885 4.94041 4.28572 4.85701 4.28572H4.28563C4.20226 4.28572 4.13377 4.25898 4.08027 4.20541C4.02682 4.15178 3.99996 4.08342 3.99996 4.00004V1.42871ZM14.2853 14.8571H1.7142V5.71433H14.2853V14.8571Z" fill="#FFC887"/>
<path d="M9.33235 10.0216L7.41937 8.11149C7.34892 8.03715 7.26095 8 7.15528 8C7.04961 8 6.96164 8.03719 6.89119 8.11149L6.6682 8.33158C6.59581 8.40396 6.55961 8.49194 6.55961 8.59562C6.55961 8.69733 6.5958 8.78636 6.6682 8.86263L8.09417 10.2857L6.66814 11.7117C6.59577 11.7841 6.55957 11.8721 6.55957 11.9758C6.55957 12.0775 6.59576 12.1666 6.66814 12.2428L6.89115 12.4629C6.96353 12.5352 7.05159 12.5714 7.15524 12.5714C7.25892 12.5714 7.34697 12.5352 7.41933 12.4629L9.33235 10.5527C9.40476 10.4764 9.44099 10.3874 9.44099 10.2857C9.441 10.182 9.40476 10.094 9.33235 10.0216Z" fill="#FFC887"/>
</g>
<defs>
<clipPath>
<rect width="16" height="16" fill="white"/>
</clipPath>
</defs>
</svg>
