<svg width="126" height="42" viewBox="0 0 126 42" fill="none" xmlns="http://www.w3.org/2000/svg">
<path d="M17.2 1.08C17.1733 1.10667 17.1333 1.17333 17.08 1.28C17.0533 1.38666 17.04 1.57333 17.04 1.84C17.04 2.21333 17.0933 2.57333 17.2 2.92V16.16C17.2 17.52 17.0667 18.8267 16.8 20.08C16.5333 21.3333 16.0667 22.4533 15.4 23.44C14.76 24.4 13.8667 25.16 12.72 25.72C11.6 26.3067 10.16 26.6 8.4 26.6H7.88C6.36 26.6 5.12 26.3867 4.16 25.96C3.22667 25.56 2.49333 25.04 1.96 24.4C1.42667 23.76 1.06667 23.0667 0.88 22.32C0.693333 21.5467 0.6 20.8133 0.6 20.12C0.6 19.5333 0.68 18.9733 0.84 18.44C0.973333 17.88 1.18667 17.4 1.48 17C1.74667 16.5733 2.08 16.24 2.48 16C2.88 15.7333 3.33333 15.6 3.84 15.6C4.32 15.6 4.62667 15.7333 4.76 16C4.89333 16.24 4.96 16.4933 4.96 16.76C4.96 17.3467 4.84 17.84 4.6 18.24C4.36 18.6133 4.09333 18.9467 3.8 19.24C3.53333 19.5333 3.28 19.8267 3.04 20.12C2.8 20.4133 2.68 20.7733 2.68 21.2C2.68 22.48 3.10667 23.4 3.96 23.96C4.81333 24.52 5.88 24.8 7.16 24.8C8.28 24.8 9.25333 24.5733 10.08 24.12C10.9067 23.6667 11.5867 23.0933 12.12 22.4C12.68 21.7067 13.0933 20.96 13.36 20.16C13.6267 19.3333 13.76 18.56 13.76 17.84L13.16 17.88C12.2 17.88 11.36 17.6667 10.64 17.24C9.94667 16.7867 9.36 16.2267 8.88 15.56C8.42667 14.8933 8.08 14.1733 7.84 13.4C7.62667 12.6267 7.52 11.9067 7.52 11.24V9.84C7.52 9.33333 7.58667 8.74667 7.72 8.08C7.85333 7.38667 8.04 6.68 8.28 5.96C8.52 5.21333 8.81333 4.49333 9.16 3.8C9.50667 3.08 9.88 2.44 10.28 1.88C10.68 1.32 11.1067 0.866665 11.56 0.519998C12.0133 0.173333 12.48 0 12.96 0C13.1467 0 13.36 0.0399995 13.6 0.119998L16.4 0.319998C16.5867 0.346665 16.76 0.413331 16.92 0.519998C17.1067 0.626665 17.2 0.813332 17.2 1.08ZM13.76 5.88C13.8133 5.66667 13.8667 5.46667 13.92 5.28C13.9733 5.09333 14 4.88 14 4.64C14 4.29333 13.9067 3.98667 13.72 3.72C13.56 3.42667 13.2533 3.28 12.8 3.28C12.2133 3.28 11.7333 3.52 11.36 4C10.9867 4.48 10.6933 5.05333 10.48 5.72C10.2933 6.38667 10.16 7.08 10.08 7.8C10 8.52 9.96 9.10667 9.96 9.56C9.96 9.90667 9.98667 10.4133 10.04 11.08C10.0933 11.72 10.2133 12.36 10.4 13C10.6133 13.64 10.8933 14.2 11.24 14.68C11.6133 15.16 12.1067 15.4 12.72 15.4C12.7733 15.4 12.92 15.3867 13.16 15.36C13.4267 15.3333 13.6267 15.2933 13.76 15.24V5.88ZM26.3772 16.28C25.9772 16.84 25.6439 17.4667 25.3772 18.16C25.1372 18.8267 24.9239 19.5333 24.7372 20.28C24.5505 21 24.3905 21.7333 24.2572 22.48C24.1505 23.2 24.0305 23.8933 23.8972 24.56C23.8439 24.72 23.6305 24.8267 23.2572 24.88C22.9105 24.9333 22.6572 24.96 22.4972 24.96C22.0172 24.96 21.6172 24.9333 21.2972 24.88C21.0039 24.8267 20.7772 24.7067 20.6172 24.52C20.4572 24.3067 20.3372 24 20.2572 23.6C20.1772 23.1733 20.1105 22.6133 20.0572 21.92L20.5772 10.04C20.5772 9.69333 20.7639 9.52 21.1372 9.52C21.2705 9.52 21.4572 9.54667 21.6972 9.6C21.9372 9.62667 22.1905 9.68 22.4572 9.76C22.7239 9.84 22.9505 9.94667 23.1372 10.08C23.3239 10.1867 23.4172 10.32 23.4172 10.48V18.6C23.4439 18.5733 23.4839 18.4667 23.5372 18.28C23.7239 17.8 23.9505 17.2133 24.2172 16.52C24.4839 15.8 24.7772 15.12 25.0972 14.48C25.4172 13.84 25.7505 13.2933 26.0972 12.84C26.4705 12.3867 26.8439 12.16 27.2172 12.16C27.6972 12.16 28.0572 12.28 28.2972 12.52C28.5639 12.7333 28.7639 13.0133 28.8972 13.36C29.0305 13.7067 29.1105 14.08 29.1372 14.48C29.1639 14.88 29.1772 15.2667 29.1772 15.64C29.1772 15.9067 29.1505 16.3467 29.0972 16.96C29.0439 17.5733 29.0172 18.4933 29.0172 19.72C29.0172 20.4133 29.0839 21.04 29.2172 21.6C29.3505 22.16 29.6172 22.44 30.0172 22.44C30.3105 22.44 30.5772 22.3067 30.8172 22.04C31.0572 21.7733 31.2705 21.44 31.4572 21.04C31.6705 20.64 31.8439 20.2133 31.9772 19.76C32.1105 19.3067 32.1905 18.88 32.2172 18.48C32.2439 17.9733 32.4439 17.72 32.8172 17.72C33.0572 17.72 33.2172 17.8 33.2972 17.96C33.3772 18.12 33.4172 18.3067 33.4172 18.52V18.6C33.3905 19.1333 33.2839 19.7333 33.0972 20.4C32.9372 21.0667 32.6839 21.6933 32.3372 22.28C32.0172 22.8667 31.5905 23.36 31.0572 23.76C30.5239 24.16 29.8705 24.36 29.0972 24.36C27.8972 24.36 27.1239 23.9333 26.7772 23.08C26.4572 22.2 26.2972 20.9067 26.2972 19.2L26.3772 16.28ZM41.9647 22.52C41.9647 23.16 41.7514 23.6533 41.3247 24C40.898 24.3467 40.4047 24.6 39.8447 24.76C39.3114 24.92 38.7647 25.0133 38.2047 25.04C37.6714 25.0933 37.2847 25.12 37.0447 25.12C36.6714 25.12 36.2047 25.08 35.6447 25C35.1114 24.92 34.578 24.8 34.0447 24.64C33.538 24.4533 33.098 24.2 32.7247 23.88C32.378 23.56 32.2047 23.16 32.2047 22.68C32.2047 22.3867 32.3114 22.1867 32.5247 22.08C32.7647 21.9467 32.9914 21.88 33.2047 21.88C33.498 21.88 33.778 21.9867 34.0447 22.2C34.338 22.4133 34.6314 22.64 34.9247 22.88C35.2447 23.12 35.5914 23.3467 35.9647 23.56C36.338 23.7733 36.7647 23.88 37.2447 23.88C37.458 23.88 37.738 23.8133 38.0847 23.68C38.458 23.52 38.6447 23.2533 38.6447 22.88C38.6447 22.5067 38.4847 22.1467 38.1647 21.8C37.8714 21.4533 37.4847 21.0933 37.0047 20.72C36.5514 20.3467 36.058 19.96 35.5247 19.56C34.9914 19.16 34.4847 18.7333 34.0047 18.28C33.5514 17.8 33.1647 17.28 32.8447 16.72C32.5514 16.16 32.4047 15.5467 32.4047 14.88C32.4047 13.9467 32.698 13.16 33.2847 12.52C33.898 11.88 34.6047 11.3733 35.4047 11C36.2314 10.6267 37.0714 10.36 37.9247 10.2C38.778 10.04 39.4447 9.96 39.9247 9.96C40.378 9.96 40.8314 10.0533 41.2847 10.24C41.738 10.4267 41.9647 10.7867 41.9647 11.32C41.9647 11.48 41.9247 11.72 41.8447 12.04C41.7914 12.3333 41.6847 12.6267 41.5247 12.92C41.3914 13.2133 41.2047 13.48 40.9647 13.72C40.7247 13.9333 40.418 14.04 40.0447 14.04C39.938 14.04 39.8314 14 39.7247 13.92C39.618 13.8133 39.498 13.7067 39.3647 13.6C39.2314 13.4667 39.0847 13.36 38.9247 13.28C38.7914 13.1733 38.6314 13.12 38.4447 13.12C37.5114 13.12 36.858 13.4 36.4847 13.96C36.1114 14.4933 35.9247 15.0667 35.9247 15.68C35.9247 16.2133 36.2314 16.7733 36.8447 17.36C37.4847 17.9467 38.178 18.5333 38.9247 19.12C39.698 19.7067 40.3914 20.2933 41.0047 20.88C41.6447 21.44 41.9647 21.9867 41.9647 22.52ZM42.8263 17.76C42.8529 16.4 42.8929 15.0133 42.9463 13.6C42.9996 12.1867 43.0529 10.88 43.1063 9.68C43.1063 9.46667 42.8929 9.32 42.4663 9.24C42.0396 9.16 41.5596 9.08 41.0263 9C40.4929 8.92 40.0129 8.8 39.5863 8.64C39.1596 8.45333 38.9462 8.16 38.9462 7.76C38.9462 7.41333 39.2929 7.21333 39.9862 7.16C40.6796 7.10667 41.7063 7.08 43.0663 7.08C43.1729 7.08 43.2396 6.92 43.2663 6.6C43.3196 6.28 43.3463 5.88 43.3463 5.4C43.3729 4.89333 43.3863 4.36 43.3863 3.8C43.4129 3.24 43.4396 2.72 43.4663 2.24C43.4929 1.73333 43.5329 1.32 43.5863 0.999999C43.6663 0.679998 43.7596 0.519998 43.8663 0.519998C43.9996 0.519998 44.2396 0.546665 44.5863 0.599999C44.9329 0.653332 45.2929 0.733332 45.6663 0.839999C46.0396 0.919999 46.3596 1.02667 46.6263 1.16C46.9196 1.29333 47.0663 1.44 47.0663 1.6L46.6263 6.8C46.6263 6.96 46.7596 7.08 47.0263 7.16C47.3196 7.21333 47.6796 7.25333 48.1063 7.28C48.5596 7.28 49.0263 7.28 49.5063 7.28C50.0129 7.28 50.4796 7.32 50.9062 7.4C51.3596 7.48 51.7196 7.61333 51.9863 7.8C52.2796 7.96 52.4263 8.21333 52.4263 8.56C52.4263 8.61333 52.3996 8.70667 52.3463 8.84C52.2929 8.94667 52.2263 9 52.1463 9C52.0929 9 52.0129 8.96 51.9063 8.88C51.8263 8.8 51.5863 8.76 51.1862 8.76C51.0796 8.76 50.7863 8.77333 50.3063 8.8C49.8263 8.82667 49.3196 8.86667 48.7863 8.92C48.2529 8.97333 47.7596 9.04 47.3063 9.12C46.8796 9.17333 46.6396 9.25333 46.5863 9.36C46.5596 9.41333 46.5196 9.73333 46.4663 10.32C46.4396 10.88 46.3996 11.6267 46.3463 12.56C46.3196 13.4933 46.2929 14.5733 46.2663 15.8C46.2396 17 46.2263 18.2667 46.2263 19.6C46.2263 20.1067 46.2529 20.6 46.3063 21.08C46.3596 21.56 46.4396 22 46.5463 22.4C46.6529 22.7733 46.7863 23.08 46.9463 23.32C47.1329 23.56 47.3463 23.68 47.5863 23.68C47.9329 23.68 48.2529 23.5333 48.5463 23.24C48.8396 22.9467 49.1063 22.5467 49.3463 22.04C49.5863 21.5333 49.7996 20.96 49.9863 20.32C50.1729 19.68 50.3329 19.0267 50.4663 18.36C50.5463 17.96 50.6396 17.68 50.7463 17.52C50.8529 17.3333 51.0129 17.24 51.2263 17.24C51.4129 17.24 51.5729 17.3067 51.7063 17.44C51.8663 17.5467 51.9463 17.8133 51.9463 18.24C51.9463 18.5067 51.9329 18.68 51.9063 18.76C51.8263 19.24 51.6663 19.9067 51.4263 20.76C51.2129 21.5867 50.9063 22.4133 50.5063 23.24C50.1329 24.04 49.6663 24.7467 49.1063 25.36C48.5463 25.9733 47.8929 26.28 47.1463 26.28C46.4263 26.28 45.7996 26.0667 45.2663 25.64C44.7329 25.24 44.2796 24.68 43.9063 23.96C43.5596 23.2133 43.2929 22.3467 43.1063 21.36C42.9196 20.3467 42.8263 19.2667 42.8263 18.12V17.76ZM66.5631 20.64C66.5098 21.0133 66.3765 21.4533 66.1631 21.96C65.9498 22.4667 65.6698 22.96 65.3231 23.44C65.0031 23.8933 64.6165 24.28 64.1631 24.6C63.7365 24.92 63.2565 25.08 62.7231 25.08C61.9231 25.08 61.2165 24.7733 60.6031 24.16C60.0165 23.5467 59.6565 22.68 59.5231 21.56C59.3631 21.9867 59.1765 22.48 58.9631 23.04C58.7498 23.6 58.4831 24.12 58.1631 24.6C57.8431 25.08 57.4698 25.48 57.0431 25.8C56.6431 26.1467 56.1631 26.32 55.6031 26.32C55.4431 26.32 55.3231 26.3067 55.2431 26.28C55.1631 26.2533 55.0698 26.2133 54.9631 26.16C54.8831 26.1333 54.7765 26.1067 54.6431 26.08C54.5365 26.0533 54.3765 26.04 54.1631 26.04C53.5231 26.04 52.9765 25.8267 52.5231 25.4C52.0965 25 51.7498 24.48 51.4831 23.84C51.2165 23.2 51.0165 22.5067 50.8831 21.76C50.7765 20.9867 50.7231 20.2667 50.7231 19.6C50.7231 18 50.8031 16.48 50.9631 15.04C51.1498 13.6 51.4431 12.3333 51.8431 11.24C52.2431 10.12 52.7631 9.24 53.4031 8.6C54.0431 7.93333 54.8165 7.6 55.7231 7.6C56.2565 7.6 56.6565 7.65333 56.9231 7.76C57.2165 7.84 57.4831 7.94667 57.7231 8.08C57.9631 8.18667 58.2165 8.30667 58.4831 8.44C58.7765 8.57333 59.1765 8.68 59.6831 8.76C60.2431 9.08 60.6298 9.46667 60.8431 9.92C61.0831 10.3467 61.2298 10.8133 61.2831 11.32C61.3631 11.8267 61.3898 12.36 61.3631 12.92C61.3365 13.4533 61.3631 13.9867 61.4431 14.52C61.4431 14.5467 61.4965 14.5867 61.6031 14.64C61.7365 14.6933 61.8831 14.76 62.0431 14.84C62.2031 14.8933 62.3365 14.9867 62.4431 15.12C62.5765 15.2267 62.6431 15.3733 62.6431 15.56V15.72C62.3765 16.4133 62.2165 17.0267 62.1631 17.56C62.1098 18.0933 62.0831 18.7333 62.0831 19.48C62.0831 19.8533 62.0965 20.2667 62.1231 20.72C62.1765 21.1467 62.2431 21.56 62.3231 21.96C62.4298 22.3333 62.5765 22.6533 62.7631 22.92C62.9498 23.16 63.1898 23.28 63.4831 23.28C63.8031 23.28 64.0831 23.12 64.3231 22.8C64.5898 22.48 64.8031 22.12 64.9631 21.72C65.1498 21.2933 65.2965 20.8667 65.4031 20.44C65.5365 20.0133 65.6165 19.6933 65.6431 19.48C65.6965 19.16 65.8298 19 66.0431 19C66.1765 19 66.2965 19.08 66.4031 19.24C66.5365 19.3733 66.6031 19.6267 66.6031 20C66.6031 20.1067 66.6031 20.2133 66.6031 20.32C66.6031 20.4 66.5898 20.5067 66.5631 20.64ZM59.1631 14.16C59.1631 13.8667 59.1365 13.52 59.0831 13.12C59.0298 12.72 58.9365 12.3467 58.8031 12C58.6698 11.6533 58.4698 11.36 58.2031 11.12C57.9365 10.88 57.5765 10.76 57.1231 10.76C56.3765 10.76 55.7631 11.1067 55.2831 11.8C54.8298 12.4667 54.4698 13.2667 54.2031 14.2C53.9365 15.1067 53.7631 16.0533 53.6831 17.04C53.6031 18 53.5631 18.76 53.5631 19.32C53.5631 19.7467 53.5765 20.2667 53.6031 20.88C53.6565 21.4667 53.7365 22.0267 53.8431 22.56C53.9498 23.0933 54.0965 23.5467 54.2831 23.92C54.4965 24.2933 54.7631 24.48 55.0831 24.48C55.8565 24.48 56.4431 24.1867 56.8431 23.6C57.2698 22.9867 57.5898 22.24 57.8031 21.36C58.0165 20.4533 58.1631 19.4933 58.2431 18.48C58.3498 17.44 58.4431 16.4933 58.5231 15.64C58.5765 15.1867 58.6965 14.9067 58.8831 14.8C59.0698 14.6667 59.1631 14.5733 59.1631 14.52V14.16ZM78.6544 26.04C78.6544 26.3067 78.5344 26.4933 78.2944 26.6C78.0544 26.7067 77.8277 26.76 77.6144 26.76L76.8144 26.68C76.681 26.68 76.6144 26.76 76.6144 26.92L76.5744 27.4C76.601 28.12 76.6144 29.0267 76.6144 30.12C76.6144 31.2133 76.6144 32.2667 76.6144 33.28C76.6144 34.3467 76.5744 35.3867 76.4944 36.4C76.441 37.44 76.2944 38.36 76.0544 39.16C75.8144 39.9867 75.4677 40.64 75.0144 41.12C74.5877 41.6267 73.9877 41.88 73.2144 41.88C72.5477 41.88 71.841 41.84 71.0944 41.76C70.3744 41.7067 69.7077 41.5467 69.0944 41.28C68.5077 41.0133 68.0144 40.6133 67.6144 40.08C67.241 39.5733 67.0544 38.88 67.0544 38C67.0544 37.12 67.1477 36.2133 67.3344 35.28C67.5477 34.3733 67.841 33.48 68.2144 32.6C68.5877 31.7467 69.0277 30.92 69.5344 30.12C70.0677 29.3467 70.641 28.6533 71.2544 28.04C71.5744 27.72 71.921 27.3867 72.2944 27.04C72.6944 26.72 73.041 26.4533 73.3344 26.24V26.2C73.3877 25.64 73.4277 25.08 73.4544 24.52C73.481 23.96 73.4944 23.3867 73.4944 22.8C73.361 23.04 73.201 23.3733 73.0144 23.8C72.8277 24.2 72.601 24.5867 72.3344 24.96C72.0944 25.3333 71.8144 25.6533 71.4944 25.92C71.1744 26.2133 70.8144 26.36 70.4144 26.36C70.201 26.36 70.0144 26.32 69.8544 26.24C69.6944 26.16 69.4677 26.12 69.1744 26.12C68.4277 26.0667 67.801 25.8667 67.2944 25.52C66.8144 25.1733 66.4277 24.6933 66.1344 24.08C65.8677 23.4667 65.681 22.7467 65.5744 21.92C65.4677 21.0667 65.4144 20.12 65.4144 19.08C65.4144 17.8267 65.481 16.5333 65.6144 15.2C65.7744 13.8667 66.041 12.6533 66.4144 11.56C66.7877 10.44 67.281 9.53333 67.8944 8.84C68.5344 8.12 69.3344 7.76 70.2944 7.76C70.401 7.76 70.5344 7.8 70.6944 7.88C70.881 7.96 71.0677 8.05333 71.2544 8.16C71.4677 8.24 71.6677 8.33333 71.8544 8.44C72.0677 8.52 72.2277 8.57333 72.3344 8.6C72.8677 8.70667 73.361 8.84 73.8144 9C74.2677 9.16 74.6544 9.37333 74.9744 9.64C75.2944 9.88 75.5477 10.2133 75.7344 10.64C75.921 11.04 76.0144 11.5467 76.0144 12.16C76.0144 12.5867 75.9744 12.9733 75.8944 13.32C75.841 13.6667 75.8144 14.1067 75.8144 14.64C75.8144 14.8533 75.8944 15 76.0544 15.08C76.2144 15.16 76.3877 15.2267 76.5744 15.28C76.7877 15.3333 76.9744 15.4 77.1344 15.48C77.2944 15.5333 77.3744 15.6667 77.3744 15.88C77.3744 15.9333 77.3077 16.0667 77.1744 16.28C77.0677 16.4667 77.001 16.5867 76.9744 16.64C76.8944 16.8533 76.8277 17.2 76.7744 17.68C76.721 18.1333 76.681 18.64 76.6544 19.2C76.6277 19.7333 76.601 20.2933 76.5744 20.88C76.5744 21.44 76.5744 21.9467 76.5744 22.4C76.5744 22.7467 76.5744 23.2133 76.5744 23.8C76.5744 24.36 76.5877 24.8267 76.6144 25.2H76.7744C76.8277 25.2 76.881 25.1867 76.9344 25.16C76.9877 25.16 77.0277 25.16 77.0544 25.16C77.2944 25.16 77.6144 25.2267 78.0144 25.36C78.441 25.52 78.6544 25.7467 78.6544 26.04ZM73.5344 13.68C73.5344 13.3867 73.5077 13.0533 73.4544 12.68C73.401 12.3067 73.3077 11.96 73.1744 11.64C73.041 11.2933 72.841 11.0133 72.5744 10.8C72.3344 10.56 72.0277 10.44 71.6544 10.44C71.1477 10.44 70.6677 10.64 70.2144 11.04C69.7877 11.44 69.401 12.0133 69.0544 12.76C68.7344 13.48 68.4677 14.3733 68.2544 15.44C68.0677 16.48 67.9744 17.6667 67.9744 19C67.9744 19.56 67.9877 20.1467 68.0144 20.76C68.0677 21.3467 68.1344 21.88 68.2144 22.36C68.321 22.84 68.4677 23.24 68.6544 23.56C68.8677 23.88 69.1344 24.04 69.4544 24.04C70.0144 24.04 70.5077 23.8 70.9344 23.32C71.361 22.84 71.7077 22.2533 71.9744 21.56C72.2677 20.84 72.481 20.1067 72.6144 19.36C72.7744 18.5867 72.8677 17.92 72.8944 17.36C72.921 16.5867 72.961 16.0667 73.0144 15.8C73.0677 15.5067 73.121 15.32 73.1744 15.24C73.3344 15.0267 73.4277 14.7733 73.4544 14.48C73.5077 14.1867 73.5344 13.92 73.5344 13.68ZM73.3744 27.6C72.761 28.0267 72.1744 28.6267 71.6144 29.4C71.081 30.1733 70.6144 31.0133 70.2144 31.92C69.8144 32.8267 69.4944 33.7467 69.2544 34.68C69.041 35.6133 68.9344 36.4533 68.9344 37.2C68.9344 37.4667 68.961 37.76 69.0144 38.08C69.0677 38.4 69.1477 38.6933 69.2544 38.96C69.3877 39.2533 69.561 39.4933 69.7744 39.68C70.0144 39.8667 70.2944 39.96 70.6144 39.96C71.1744 39.96 71.6277 39.72 71.9744 39.24C72.3477 38.7867 72.6277 38.24 72.8144 37.6C73.0277 36.96 73.161 36.3067 73.2144 35.64C73.2944 34.9733 73.3344 34.44 73.3344 34.04C73.3344 33.96 73.3344 33.84 73.3344 33.68C73.3344 33.52 73.3344 33.2133 73.3344 32.76C73.361 32.3067 73.3744 31.6667 73.3744 30.84C73.3744 30.04 73.3744 28.96 73.3744 27.6ZM90.5969 19.36C90.5969 19.5467 90.5302 20 90.3969 20.72C90.2902 21.4133 90.0769 22.16 89.7569 22.96C89.4635 23.7333 89.0502 24.4267 88.5169 25.04C88.0102 25.6533 87.3569 25.96 86.5569 25.96C85.7035 25.96 85.0235 25.6533 84.5169 25.04C84.0102 24.4533 83.6235 23.7467 83.3569 22.92C83.0902 22.0667 82.9169 21.1867 82.8369 20.28C82.7569 19.3467 82.7169 18.5733 82.7169 17.96C82.7169 17.2667 82.7569 16.5733 82.8369 15.88C82.9169 15.16 82.9702 14.4533 82.9969 13.76C82.9969 13.5467 82.8902 13.4133 82.6769 13.36C82.4635 13.3067 82.2635 13.28 82.0769 13.28C81.7569 13.28 81.5569 13.32 81.4769 13.4C81.3969 13.48 81.3435 13.5733 81.3169 13.68L81.1569 14.96C81.0502 15.8133 80.9302 16.64 80.7969 17.44C80.6902 18.2133 80.5569 18.9067 80.3969 19.52C80.2635 20.1067 80.0902 20.5867 79.8769 20.96C79.6902 21.3067 79.4635 21.48 79.1969 21.48H79.1569C79.0502 21.48 78.9435 21.4533 78.8369 21.4C78.7569 21.3467 78.7169 21.2133 78.7169 21C78.7169 20.8933 78.7435 20.7333 78.7969 20.52C79.0102 19.5867 79.1435 18.8133 79.1969 18.2C79.2502 17.5867 79.2902 17.04 79.3169 16.56V16.28C79.3169 16.1467 79.3169 15.9867 79.3169 15.8C79.3435 15.6133 79.3569 15.3867 79.3569 15.12V14.08C79.3569 13.7867 79.3569 13.48 79.3569 13.16C79.3569 12.84 79.3302 12.4933 79.2769 12.12L79.1569 9.76C79.1569 9.6 79.2235 9.45333 79.3569 9.32C79.4902 9.18667 79.6635 9.06667 79.8769 8.96C80.0902 8.85333 80.3169 8.77333 80.5569 8.72C80.7969 8.66667 81.0102 8.64 81.1969 8.64C81.6502 8.64 81.8769 8.93333 81.8769 9.52V9.72L81.8369 10.6V10.84C81.8369 11.0267 81.8769 11.1467 81.9569 11.2C82.0369 11.2267 82.1969 11.2667 82.4369 11.32H82.5569C82.7702 11.3467 83.1169 11.3733 83.5969 11.4C84.0769 11.4267 84.5569 11.48 85.0369 11.56C85.5169 11.64 85.9302 11.7733 86.2769 11.96C86.6502 12.12 86.8369 12.36 86.8369 12.68C86.8369 12.7867 86.8102 12.9467 86.7569 13.16C86.7035 13.3467 86.6369 13.5467 86.5569 13.76C86.4769 13.9467 86.4102 14.12 86.3569 14.28C86.3035 14.44 86.2769 14.5467 86.2769 14.6C85.7969 16.44 85.5569 18.36 85.5569 20.36C85.5569 20.52 85.5702 20.8133 85.5969 21.24C85.6235 21.6667 85.6769 22.1067 85.7569 22.56C85.8369 23.0133 85.9569 23.4133 86.1169 23.76C86.2769 24.1067 86.4769 24.28 86.7169 24.28C87.1169 24.28 87.4769 24.04 87.7969 23.56C88.1169 23.0533 88.3969 22.48 88.6369 21.84C88.8769 21.1733 89.0635 20.5067 89.1969 19.84C89.3569 19.1733 89.4635 18.68 89.5169 18.36C89.5702 18.0667 89.6502 17.8933 89.7569 17.84C89.8902 17.76 90.0102 17.72 90.1169 17.72C90.4902 17.72 90.6769 17.96 90.6769 18.44C90.6769 18.4933 90.6635 18.64 90.6369 18.88C90.6369 19.0933 90.6235 19.2533 90.5969 19.36ZM105.274 20.64C105.221 21.0133 105.087 21.4533 104.874 21.96C104.661 22.4667 104.381 22.96 104.034 23.44C103.714 23.8933 103.327 24.28 102.874 24.6C102.447 24.92 101.967 25.08 101.434 25.08C100.634 25.08 99.9274 24.7733 99.3141 24.16C98.7274 23.5467 98.3674 22.68 98.2341 21.56C98.0741 21.9867 97.8874 22.48 97.6741 23.04C97.4607 23.6 97.1941 24.12 96.8741 24.6C96.5541 25.08 96.1807 25.48 95.7541 25.8C95.3541 26.1467 94.8741 26.32 94.3141 26.32C94.1541 26.32 94.0341 26.3067 93.9541 26.28C93.8741 26.2533 93.7807 26.2133 93.6741 26.16C93.5941 26.1333 93.4874 26.1067 93.3541 26.08C93.2474 26.0533 93.0874 26.04 92.8741 26.04C92.2341 26.04 91.6874 25.8267 91.2341 25.4C90.8074 25 90.4607 24.48 90.1941 23.84C89.9274 23.2 89.7274 22.5067 89.5941 21.76C89.4874 20.9867 89.4341 20.2667 89.4341 19.6C89.4341 18 89.5141 16.48 89.6741 15.04C89.8607 13.6 90.1541 12.3333 90.5541 11.24C90.9541 10.12 91.4741 9.24 92.1141 8.6C92.7541 7.93333 93.5274 7.6 94.4341 7.6C94.9674 7.6 95.3674 7.65333 95.6341 7.76C95.9274 7.84 96.1941 7.94667 96.4341 8.08C96.6741 8.18667 96.9274 8.30667 97.1941 8.44C97.4874 8.57333 97.8874 8.68 98.3941 8.76C98.9541 9.08 99.3407 9.46667 99.5541 9.92C99.7941 10.3467 99.9407 10.8133 99.9941 11.32C100.074 11.8267 100.101 12.36 100.074 12.92C100.047 13.4533 100.074 13.9867 100.154 14.52C100.154 14.5467 100.207 14.5867 100.314 14.64C100.447 14.6933 100.594 14.76 100.754 14.84C100.914 14.8933 101.047 14.9867 101.154 15.12C101.287 15.2267 101.354 15.3733 101.354 15.56V15.72C101.087 16.4133 100.927 17.0267 100.874 17.56C100.821 18.0933 100.794 18.7333 100.794 19.48C100.794 19.8533 100.807 20.2667 100.834 20.72C100.887 21.1467 100.954 21.56 101.034 21.96C101.141 22.3333 101.287 22.6533 101.474 22.92C101.661 23.16 101.901 23.28 102.194 23.28C102.514 23.28 102.794 23.12 103.034 22.8C103.301 22.48 103.514 22.12 103.674 21.72C103.861 21.2933 104.007 20.8667 104.114 20.44C104.247 20.0133 104.327 19.6933 104.354 19.48C104.407 19.16 104.541 19 104.754 19C104.887 19 105.007 19.08 105.114 19.24C105.247 19.3733 105.314 19.6267 105.314 20C105.314 20.1067 105.314 20.2133 105.314 20.32C105.314 20.4 105.301 20.5067 105.274 20.64ZM97.8741 14.16C97.8741 13.8667 97.8474 13.52 97.7941 13.12C97.7407 12.72 97.6474 12.3467 97.5141 12C97.3807 11.6533 97.1807 11.36 96.9141 11.12C96.6474 10.88 96.2874 10.76 95.8341 10.76C95.0874 10.76 94.4741 11.1067 93.9941 11.8C93.5407 12.4667 93.1807 13.2667 92.9141 14.2C92.6474 15.1067 92.4741 16.0533 92.3941 17.04C92.3141 18 92.2741 18.76 92.2741 19.32C92.2741 19.7467 92.2874 20.2667 92.3141 20.88C92.3674 21.4667 92.4474 22.0267 92.5541 22.56C92.6607 23.0933 92.8074 23.5467 92.9941 23.92C93.2074 24.2933 93.4741 24.48 93.7941 24.48C94.5674 24.48 95.1541 24.1867 95.5541 23.6C95.9807 22.9867 96.3007 22.24 96.5141 21.36C96.7274 20.4533 96.8741 19.4933 96.9541 18.48C97.0607 17.44 97.1541 16.4933 97.2341 15.64C97.2874 15.1867 97.4074 14.9067 97.5941 14.8C97.7807 14.6667 97.8741 14.5733 97.8741 14.52V14.16ZM117.525 15.16C117.152 15.88 116.805 16.64 116.485 17.44C116.165 18.24 115.925 18.8667 115.765 19.32C115.739 19.4533 115.659 19.7333 115.525 20.16C115.419 20.5867 115.285 21.0667 115.125 21.6C114.992 22.1067 114.872 22.6133 114.765 23.12C114.659 23.6267 114.605 24.04 114.605 24.36C114.605 24.4933 114.485 24.6133 114.245 24.72C114.005 24.8267 113.699 24.88 113.325 24.88C112.739 24.88 112.272 24.8 111.925 24.64C111.579 24.48 111.312 24.2267 111.125 23.88C110.965 23.5067 110.859 23.0267 110.805 22.44C110.779 21.8533 110.765 21.1467 110.765 20.32V17.32C110.765 17.1067 110.752 16.8933 110.725 16.68C110.725 16.4667 110.685 16.3333 110.605 16.28C110.472 16.3333 110.299 16.68 110.085 17.32C109.899 17.96 109.712 18.7467 109.525 19.68C109.365 20.5867 109.219 21.5467 109.085 22.56C108.952 23.5733 108.885 24.48 108.885 25.28C108.885 25.5733 108.725 25.7467 108.405 25.8C108.112 25.8533 107.779 25.88 107.405 25.88C107.299 25.88 107.112 25.8533 106.845 25.8C106.605 25.7733 106.352 25.7333 106.085 25.68C105.845 25.6267 105.619 25.5467 105.405 25.44C105.192 25.36 105.059 25.2533 105.005 25.12C104.872 24.7733 104.765 24.2 104.685 23.4C104.632 22.6 104.605 21.36 104.605 19.68C104.605 18.6933 104.619 17.5467 104.645 16.24C104.699 14.9333 104.752 13.4 104.805 11.64C104.805 11.4 104.792 11.0933 104.765 10.72C104.739 10.32 104.725 10.0933 104.725 10.04C104.725 9.82667 104.805 9.70667 104.965 9.68C105.152 9.62667 105.285 9.6 105.365 9.6C105.552 9.6 105.765 9.62667 106.005 9.68C106.272 9.70667 106.525 9.74667 106.765 9.8C107.032 9.85333 107.272 9.92 107.485 10C107.699 10.0533 107.845 10.1067 107.925 10.16V19.8C108.059 19.2667 108.205 18.6533 108.365 17.96C108.552 17.24 108.752 16.5333 108.965 15.84C109.205 15.1467 109.459 14.5067 109.725 13.92C109.992 13.3333 110.272 12.9067 110.565 12.64C110.672 12.56 110.872 12.5067 111.165 12.48C111.459 12.4267 111.699 12.4 111.885 12.4C112.019 12.4 112.179 12.4267 112.365 12.48C112.579 12.5067 112.779 12.56 112.965 12.64C113.152 12.72 113.312 12.8267 113.445 12.96C113.605 13.0667 113.699 13.2 113.725 13.36V19.84V20.2C113.725 20.36 113.752 20.44 113.805 20.44C113.859 20.44 114.005 20.08 114.245 19.36C114.512 18.64 114.819 17.7867 115.165 16.8C115.512 15.8133 115.885 14.8 116.285 13.76C116.685 12.72 117.045 11.8933 117.365 11.28C117.419 11.1733 117.592 11.12 117.885 11.12C118.205 11.0933 118.485 11.08 118.725 11.08C118.912 11.08 119.165 11.1467 119.485 11.28C119.805 11.3867 120.112 11.5467 120.405 11.76C120.725 11.9733 120.992 12.2133 121.205 12.48C121.445 12.7467 121.565 13.0267 121.565 13.32C121.565 13.3733 121.485 13.5333 121.325 13.8C121.165 14.04 121.059 14.2933 121.005 14.56C120.819 15.3067 120.685 16.04 120.605 16.76C120.552 17.48 120.525 18.4 120.525 19.52C120.525 20 120.539 20.48 120.565 20.96C120.619 21.44 120.685 21.88 120.765 22.28C120.872 22.6533 121.005 22.96 121.165 23.2C121.325 23.44 121.539 23.56 121.805 23.56C122.179 23.56 122.512 23.44 122.805 23.2C123.099 22.9333 123.352 22.5867 123.565 22.16C123.779 21.7333 123.965 21.24 124.125 20.68C124.285 20.0933 124.419 19.4933 124.525 18.88C124.659 18.24 124.899 17.92 125.245 17.92C125.459 17.92 125.592 17.9733 125.645 18.08C125.725 18.1867 125.765 18.4267 125.765 18.8C125.765 19.0133 125.752 19.16 125.725 19.24C125.699 19.5867 125.579 20.1333 125.365 20.88C125.179 21.6 124.899 22.3333 124.525 23.08C124.179 23.8 123.739 24.44 123.205 25C122.672 25.5333 122.059 25.8 121.365 25.8C120.539 25.8 119.859 25.6 119.325 25.2C118.792 24.8267 118.379 24.32 118.085 23.68C117.792 23.0133 117.579 22.2533 117.445 21.4C117.339 20.5467 117.285 19.6533 117.285 18.72V18.44L117.525 15.16Z" fill="#252525"/>
</svg>
