<svg width="90" height="90" viewBox="0 0 90 90" fill="none" xmlns="http://www.w3.org/2000/svg">
<path d="M84.7387 65.287C84.4119 64.9601 83.9584 64.772 83.4961 64.772C83.0338 64.772 82.5803 64.9601 82.2533 65.287C81.9264 65.614 81.7383 66.0675 81.7383 66.5298C81.7383 66.9921 81.9262 67.4456 82.2533 67.7725C82.5803 68.1013 83.0338 68.2876 83.4961 68.2876C83.9584 68.2876 84.4119 68.1013 84.7387 67.7725C85.0656 67.4456 85.2539 66.9921 85.2539 66.5298C85.2539 66.0675 85.0658 65.614 84.7387 65.287Z" fill="#FFC887"/>
<path d="M83.4961 59.8505C84.4668 59.8505 85.2539 59.0636 85.2539 58.0927V40.2539C85.2539 29.5017 81.0668 19.3931 73.4639 11.79C65.8608 4.18711 55.7522 0 45 0C34.2478 0 24.1392 4.18711 16.5361 11.79C8.9332 19.3931 4.74609 29.5017 4.74609 40.2539V88.2422C4.74609 89.213 5.53324 90 6.50391 90H83.4961C84.4668 90 85.2539 89.213 85.2539 88.2422V76.6406C85.2539 75.6698 84.4668 74.8828 83.4961 74.8828C82.5254 74.8828 81.7383 75.6698 81.7383 76.6406V86.4844H77.8799L66.3891 69.4877C68.7547 67.885 70.3125 65.1758 70.3125 62.1095V31.2899C70.3125 31.2894 70.3125 31.2887 70.3125 31.2882V25.7813C70.3125 20.8703 66.3172 16.875 61.4062 16.875H28.5938C23.6828 16.875 19.6875 20.8703 19.6875 25.7813V62.1095C19.6875 65.1758 21.2453 67.885 23.6109 69.4877L12.1201 86.4844H8.26172V40.2539C8.26172 19.9963 24.7424 3.51562 45 3.51562C65.2576 3.51562 81.7383 19.9963 81.7383 40.2539V58.0927C81.7383 59.0636 82.5254 59.8505 83.4961 59.8505ZM66.7969 52.0312H46.7578V33.0469H64.3108L54.2159 43.1418C53.5294 43.8282 53.5294 44.9413 54.2159 45.6279C54.5592 45.9712 55.009 46.1428 55.4588 46.1428C55.9086 46.1428 56.3585 45.9712 56.7018 45.6279L66.7969 35.533V52.0312ZM23.2031 25.7813C23.2031 22.8088 25.6213 20.3906 28.5938 20.3906H61.4062C64.3787 20.3906 66.7969 22.8088 66.7969 25.7813V29.5312H23.2031V25.7813ZM23.2031 33.0469H43.2422V52.0312H25.8367L37.4398 40.4281C38.1263 39.7417 38.1263 38.6286 37.4398 37.9422C36.7532 37.2558 35.6405 37.2558 34.9538 37.9422L23.2031 49.6928V33.0469ZM23.2031 62.1093V55.5469H66.7969V62.1093C66.7969 65.0818 64.3787 67.5 61.4062 67.5H28.5938C25.6213 67.5 23.2031 65.0818 23.2031 62.1093ZM26.9286 70.8572C27.4685 70.9597 28.0246 71.0156 28.5938 71.0156H61.4062C61.9754 71.0156 62.5315 70.9597 63.0714 70.8572L67.2191 76.9922H22.7809L26.9286 70.8572ZM20.4042 80.5078H69.5958L73.6363 86.4844H16.3637L20.4042 80.5078Z" fill="#FFC887"/>
<path d="M31.7113 60.2807C31.3846 59.9537 30.9311 59.7656 30.4687 59.7656C30.0064 59.7656 29.5529 59.9537 29.226 60.2807C28.899 60.6076 28.7109 61.0611 28.7109 61.5234C28.7109 61.9857 28.8988 62.4393 29.226 62.7662C29.5531 63.0932 30.0064 63.2812 30.4687 63.2812C30.9328 63.2812 31.3846 63.0932 31.7113 62.7662C32.0383 62.4393 32.2266 61.9857 32.2266 61.5234C32.2266 61.0611 32.0385 60.6076 31.7113 60.2807Z" fill="#FFC887"/>
<path d="M60.774 60.2807C60.4471 59.9537 59.9936 59.7656 59.5312 59.7656C59.0689 59.7656 58.6154 59.9537 58.2885 60.2807C57.9617 60.6076 57.7734 61.0611 57.7734 61.5234C57.7734 61.9857 57.9615 62.4393 58.2885 62.7662C58.6154 63.0932 59.0689 63.2812 59.5312 63.2812C59.9936 63.2812 60.4471 63.0932 60.774 62.7662C61.1008 62.4393 61.2891 61.9857 61.2891 61.5234C61.2891 61.0611 61.101 60.6076 60.774 60.2807Z" fill="#FFC887"/>
<path d="M51.8381 59.7656H38.1611C37.1905 59.7656 36.4033 60.5526 36.4033 61.5234C36.4033 62.4943 37.1903 63.2812 38.1611 63.2812H51.8381C52.8088 63.2812 53.5959 62.4943 53.5959 61.5234C53.5959 60.5526 52.8088 59.7656 51.8381 59.7656Z" fill="#FFC887"/>
</svg>
