<svg width="158" height="20" fill="none" xmlns="http://www.w3.org/2000/svg"><path d="M41.956 3.11V1.08c0-.475-.35-.734-.742-.734h-10.74c-.48 0-.743.388-.743.777v2.03c0 .39.393.735.786.735h3.187V15.55c0 .432.306.734.742.734h2.882c.437 0 .742-.302.742-.734V3.844h3.187c.35 0 .699-.302.699-.734zm43.309 12.657c.087-.216 3.973-12.009 4.933-14.86.088-.345-.13-.605-.48-.605h-3.667c-.437 0-.655.303-.742.562-.088.26-2.794 9.849-2.794 9.849S79.808 1.08 79.72.82c-.087-.26-.305-.519-.742-.519h-3.667c-.35 0-.568.26-.437.648.175.519 4.803 14.514 4.89 14.817.131.345.437.518.699.518h4.06c.436 0 .655-.26.742-.518zm-67.409-.087c.655.26 1.354.519 1.878.605.742.13 1.615.216 2.706.216 1.31 0 2.402-.216 3.362-.648.96-.432 1.703-1.037 2.227-1.814.524-.778.786-1.642.786-2.635 0-1.08-.262-1.987-.83-2.678-.524-.735-1.528-1.383-2.925-1.987-1.44-.648-2.358-1.123-2.663-1.34-.35-.259-.48-.518-.48-.863 0-.303.13-.519.392-.735.262-.216.655-.302 1.223-.302.917 0 2.008.26 3.187.734.393.173.83.043 1.004-.432.262-.69.655-1.684.786-1.944a.748.748 0 0 0-.437-.993C26.588.302 25.104 0 23.662 0c-1.92 0-3.404.432-4.496 1.253-1.091.82-1.615 1.987-1.615 3.455 0 .778.13 1.47.393 2.074.262.561.655 1.08 1.178 1.555.524.432 1.31.907 2.402 1.382 1.178.519 1.877.864 2.139 1.037.262.173.48.345.567.518.131.173.175.346.175.562 0 .345-.13.648-.437.864-.305.216-.785.345-1.44.345-.742 0-1.572-.172-2.489-.388-.262-.087-.567-.173-.83-.26-.305-.13-.785-.086-.96.432-.218.562-.567 1.383-.786 1.944-.218.432.088.778.393.907zM8.34 0C3.71 0 0 3.715 0 8.25c0 4.58 3.755 8.251 8.339 8.251 4.628 0 8.338-3.715 8.338-8.25C16.721 3.715 12.967 0 8.34 0zm0 12.225c-2.227 0-4.017-1.771-4.017-3.974 0-2.203 1.79-3.975 4.017-3.975 2.226 0 4.016 1.772 4.016 3.975 0 2.203-1.79 3.974-4.016 3.974zm39.38-1.771h1.135s3.71 5.313 3.842 5.486c.13.216.305.302.611.302h3.1c.48 0 .567-.475.393-.734-.175-.26-3.93-5.53-3.93-5.53 2.707-.604 3.755-2.462 3.755-4.794 0-3.154-2.096-4.882-6.461-4.882h-5.938a.732.732 0 0 0-.742.735V15.55c0 .389.35.734.742.734h2.75c.393 0 .743-.302.743-.691v-5.14zm0-6.869h2.357c1.485 0 2.358.735 2.358 1.771 0 1.34-1.004 1.987-2.532 1.987h-2.183V3.585zm95.132 11.966c-.175-.26-3.93-5.53-3.93-5.53 2.707-.604 3.755-2.462 3.755-4.794 0-3.154-2.096-4.881-6.462-4.881h-5.937a.731.731 0 0 0-.742.734v14.514a.76.76 0 0 0 .742.734h2.75c.393 0 .743-.302.743-.69V10.54h1.135s3.711 5.313 3.842 5.486c.131.216.305.302.611.302h3.1c.48-.043.567-.561.393-.777zm-6.899-8.25h-2.182V3.541h2.357c1.484 0 2.358.734 2.358 1.771 0 1.34-1.004 1.987-2.533 1.987zm-7.683 7.127c0-1.167-.961-2.117-2.14-2.117-1.178 0-2.139.95-2.139 2.117 0 1.166.961 2.116 2.139 2.116 1.223 0 2.14-.95 2.14-2.116zM157.171.302h-2.882c-.437 0-.742.39-.742.735v8.596c0 1.123-.218 1.944-.655 2.462-.437.518-1.048.778-1.877.778-.83 0-1.485-.26-1.878-.778-.436-.518-.655-1.34-.655-2.462V1.037a.731.731 0 0 0-.742-.735h-2.881c-.48 0-.742.39-.742.778v8.898c0 2.074.611 3.715 1.79 4.795 1.178 1.123 2.925 1.685 5.151 1.685 2.183 0 3.973-.562 5.152-1.685 1.179-1.123 1.79-2.721 1.79-4.795V1.08c-.044-.389-.349-.778-.829-.778zm-46.802 15.983h2.881c.437 0 .742-.302.742-.691v-4.622l1.31-.778s2.881 5.53 3.012 5.745c.131.216.35.346.655.346h3.668c.436 0 .524-.475.393-.691a4238.2 4238.2 0 0 1-4.628-8.121s4.497-6.307 4.628-6.48c.131-.172.043-.69-.393-.69h-3.493c-.218 0-.437.129-.611.302-.131.216-3.231 4.665-3.231 4.665l-1.31.778V1.08a.76.76 0 0 0-.742-.734h-2.881c-.437 0-.743.302-.743.777v14.471c-.043.389.306.691.743.691zM59.463 11.62c1.004-.13 2.969-.432 3.274-.475a.491.491 0 0 0 .35-.735 4.063 4.063 0 0 1-.655-2.16c0-2.202 1.79-3.974 4.016-3.974 2.227 0 4.017 1.772 4.017 3.975 0 2.03-1.528 3.671-3.493 3.93 0 0-5.85.864-6.33.95-.437.087-.524.562-.219.865C61.951 15.55 66.404 20 66.404 20s4.454-4.45 5.982-6.004c1.484-1.469 2.357-3.5 2.357-5.745C74.743 3.67 70.99 0 66.405 0c-4.628 0-8.34 3.715-8.34 8.25 0 .994.175 1.988.525 2.895.174.302.436.561.873.475zM98.973 0c-4.627 0-8.338 3.715-8.338 8.25 0 4.58 3.755 8.251 8.339 8.251 4.628 0 8.339-3.715 8.339-8.25.043-4.536-3.711-8.251-8.34-8.251zm0 12.225c-2.226 0-4.016-1.771-4.016-3.974 0-2.203 1.79-3.975 4.017-3.975 2.226 0 4.016 1.772 4.016 3.975 0 2.203-1.79 3.974-4.016 3.974z" fill="#fff"/></svg>