<svg width="36" height="36" fill="none" xmlns="http://www.w3.org/2000/svg"><circle cx="18" cy="18" r="16.5" fill="url(#paint0_linear)" stroke="#fff" stroke-width="3"/><g clip-path="url(#clip0)"><path d="M17.8 11.003c-2.78.098-5.091 2.268-5.358 5.038a5.62 5.62 0 0 0 .488 2.888c.56 1.326 1.854 3.545 4.759 5.959.178.15.439.15.62 0 2.905-2.411 4.2-4.63 4.762-5.962.164-.35.29-.72.376-1.108a5.608 5.608 0 0 0 .138-1.234 5.583 5.583 0 0 0-5.784-5.58zm.199 8.36a2.712 2.712 0 1 1 0-5.425 2.712 2.712 0 0 1 0 5.424z" fill="#fff"/></g><defs><linearGradient id="paint0_linear" x1="6.988" y1="27.6" x2="27.529" y2="7.059" gradientUnits="userSpaceOnUse"><stop stop-color="#FFA94F"/><stop offset="1" stop-color="#C82F50"/></linearGradient><clipPath id="clip0"><path fill="#fff" transform="translate(11 11)" d="M0 0h14v14H0z"/></clipPath></defs></svg>