<svg width="13" height="25" viewBox="0 0 13 25" fill="none" xmlns="http://www.w3.org/2000/svg">
<path d="M12.6968 6.35593C12.6968 2.85127 9.91681 0 6.49977 0C3.08272 0 0.302734 2.85127 0.302734 6.35593C0.302734 9.7178 2.86211 12.4708 6.08663 12.6903V24.5763C6.08663 24.8106 6.27172 25 6.49977 25C6.72782 25 6.9129 24.8106 6.9129 24.5763V12.6903C10.1374 12.4708 12.6968 9.7178 12.6968 6.35593ZM6.49977 11.8644C3.53841 11.8644 1.12901 9.39322 1.12901 6.35593C1.12901 3.31864 3.53841 0.847458 6.49977 0.847458C9.46112 0.847458 11.8705 3.31864 11.8705 6.35593C11.8705 9.39322 9.46112 11.8644 6.49977 11.8644Z" fill="white"/>
<path d="M4.43379 2.96606C3.52242 2.96606 2.78125 3.72623 2.78125 4.66098C2.78125 5.59573 3.52242 6.3559 4.43379 6.3559C5.34517 6.3559 6.08633 5.59573 6.08633 4.66098C6.08633 3.72623 5.34517 2.96606 4.43379 2.96606ZM4.43379 5.50844C3.9781 5.50844 3.60752 5.12835 3.60752 4.66098C3.60752 4.19361 3.9781 3.81352 4.43379 3.81352C4.88948 3.81352 5.26006 4.19361 5.26006 4.66098C5.26006 5.12835 4.88948 5.50844 4.43379 5.50844Z" fill="white"/>
</svg>
