<svg width="50" height="50" viewBox="0 0 50 50" fill="none" xmlns="http://www.w3.org/2000/svg">
<g clip-path="url(#clip0)">
<path d="M24.8047 22.5243C24.2656 22.5243 23.8281 22.9618 23.8281 23.5008C23.8281 24.0399 24.2656 24.4774 24.8047 24.4774C25.3437 24.4774 25.7812 24.0399 25.7812 23.5008C25.7812 22.9618 25.3437 22.5243 24.8047 22.5243Z" fill="#FFC887"/>
<path d="M49.5649 35.3835C49.1161 35.0845 48.5098 35.206 48.2107 35.6545C47.9561 36.0365 47.475 36.2647 46.9237 36.2647C46.3725 36.2647 45.8914 36.0365 45.6367 35.6545C45.019 34.7277 43.9304 34.1744 42.7245 34.1744C41.5187 34.1744 40.4299 34.7277 39.8123 35.6545C39.5539 36.0423 39.1382 36.2647 38.6718 36.2647C38.2054 36.2647 37.7898 36.0423 37.5313 35.6545C36.9136 34.7277 35.8797 34.1744 34.7656 34.1744C34.7079 34.1744 34.6507 34.1768 34.5937 34.1798C35.3373 32.7002 35.7421 31.0509 35.7421 29.3602C35.7421 23.437 30.9232 18.618 25 18.618C19.0768 18.618 14.2578 23.437 14.2578 29.3602C14.2578 31.6423 14.9923 33.8643 16.3374 35.704C16.0773 36.0601 15.6798 36.2647 15.2344 36.2647C14.768 36.2647 14.3524 36.0423 14.0939 35.6545C13.4762 34.7277 12.4423 34.1744 11.3282 34.1744C10.214 34.1744 9.18002 34.7277 8.56245 35.6545C8.30786 36.0365 7.82671 36.2647 7.27544 36.2647C6.72417 36.2647 6.24312 36.0365 5.98843 35.6545C5.37076 34.7277 4.28209 34.1744 3.07624 34.1744C1.87038 34.1744 0.781714 34.7277 0.164041 35.6545C-0.135079 36.1033 -0.0136925 36.7097 0.435036 37.0087C0.88396 37.3078 1.49021 37.1864 1.78923 36.7377C2.04382 36.3557 2.52497 36.1275 3.07624 36.1275C3.6275 36.1275 4.10856 36.3557 4.36324 36.7377C4.98092 37.6645 6.06958 38.2178 7.27544 38.2178C8.48129 38.2178 9.57006 37.6645 10.1876 36.7377C10.446 36.3499 10.8618 36.1275 11.3282 36.1275C11.7946 36.1275 12.2102 36.3499 12.4687 36.7377C13.0864 37.6645 14.1202 38.2178 15.2344 38.2178C16.3485 38.2178 17.3825 37.6645 17.9993 36.7388C18.3096 36.2745 18.8244 36.0729 19.3258 36.1398C19.7198 36.192 20.059 36.4043 20.2811 36.7376C20.8987 37.6644 21.9326 38.2177 23.0468 38.2177C24.1609 38.2177 25.1949 37.6644 25.8125 36.7376C26.0709 36.3498 26.4866 36.1274 26.953 36.1274C27.4194 36.1274 27.835 36.3498 28.0938 36.738C28.6797 37.6161 29.612 38.1487 30.6593 38.21C30.6815 38.2124 30.704 38.2134 30.7265 38.2144C30.7288 38.2145 30.731 38.2147 30.7334 38.2148C30.7341 38.2148 30.7349 38.2148 30.7358 38.2148C30.747 38.2152 30.7582 38.2165 30.7695 38.2165C30.7798 38.2165 30.7899 38.2155 30.8002 38.2152C31.9414 38.2364 32.9923 37.6881 33.6251 36.7376C33.8835 36.3498 34.2993 36.1274 34.7657 36.1274C35.2321 36.1274 35.6477 36.3498 35.9062 36.7376C36.5239 37.6644 37.5577 38.2177 38.6719 38.2177C39.7861 38.2177 40.82 37.6644 41.4376 36.7376C41.6922 36.3556 42.1733 36.1274 42.7246 36.1274C43.2759 36.1274 43.7569 36.3556 44.0116 36.7376C44.6293 37.6644 45.718 38.2177 46.9238 38.2177C48.1297 38.2177 49.2184 37.6644 49.836 36.7376C50.135 36.2889 50.0137 35.6825 49.5649 35.3835ZM30.4977 36.2162C30.1816 36.1315 29.9069 35.9363 29.7189 35.6546C29.1012 34.7277 28.0673 34.1744 26.9531 34.1744C25.8389 34.1744 24.805 34.7277 24.1874 35.6545C23.929 36.0423 23.5133 36.2647 23.0469 36.2647C22.5805 36.2647 22.1648 36.0423 21.9065 35.6547C21.3759 34.8581 20.529 34.3293 19.5829 34.2037C18.9808 34.1237 18.3771 34.2092 17.833 34.4408C16.7825 32.9567 16.211 31.1813 16.211 29.3602C16.211 24.5139 20.1537 20.5712 25 20.5712C29.8462 20.5712 33.789 24.5139 33.789 29.3602C33.789 32.0195 32.565 34.5536 30.4977 36.2162Z" fill="#FFC887"/>
<path d="M49.5649 40.2663C49.1161 39.9673 48.5098 40.0888 48.2107 40.5373C47.9561 40.9194 47.475 41.1475 46.9237 41.1475C46.3725 41.1475 45.8914 40.9194 45.6367 40.5373C45.019 39.6106 43.9304 39.0573 42.7245 39.0573C41.5187 39.0573 40.4299 39.6106 39.8123 40.5373C39.5539 40.9251 39.1382 41.1475 38.6718 41.1475C38.2054 41.1475 37.7898 40.9251 37.5313 40.5373C36.9136 39.6106 35.8797 39.0573 34.7656 39.0573C33.6514 39.0573 32.6174 39.6106 31.9999 40.5373C31.7415 40.9251 31.3257 41.1475 30.8593 41.1475C30.3929 41.1475 29.9773 40.9251 29.7188 40.5373C29.1011 39.6106 28.0673 39.0573 26.9531 39.0573C25.8389 39.0573 24.805 39.6106 24.1874 40.5373C23.929 40.9251 23.5133 41.1475 23.0469 41.1475C22.5805 41.1475 22.1648 40.9251 21.9063 40.5373C21.2887 39.6106 20.2548 39.0573 19.1406 39.0573C18.0265 39.0573 16.9925 39.6106 16.3749 40.5373C16.1165 40.9251 15.7008 41.1475 15.2344 41.1475C14.768 41.1475 14.3524 40.9251 14.0939 40.5373C13.4762 39.6106 12.4423 39.0573 11.3282 39.0573C10.214 39.0573 9.18002 39.6106 8.56245 40.5373C8.30786 40.9194 7.82671 41.1475 7.27544 41.1475C6.72417 41.1475 6.24312 40.9194 5.98843 40.5373C5.37076 39.6106 4.28209 39.0573 3.07624 39.0573C1.87038 39.0573 0.781714 39.6106 0.164041 40.5373C-0.135079 40.9862 -0.0136925 41.5925 0.435036 41.8915C0.88396 42.1906 1.49021 42.0693 1.78923 41.6205C2.04382 41.2385 2.52497 41.0104 3.07624 41.0104C3.6275 41.0104 4.10856 41.2385 4.36324 41.6205C4.98092 42.5473 6.06958 43.1006 7.27544 43.1006C8.48129 43.1006 9.57006 42.5473 10.1876 41.6205C10.446 41.2327 10.8618 41.0104 11.3282 41.0104C11.7946 41.0104 12.2102 41.2327 12.4687 41.6205C13.0864 42.5473 14.1202 43.1006 15.2344 43.1006C16.3485 43.1006 17.3825 42.5473 18.0001 41.6205C18.2585 41.2327 18.6742 41.0104 19.1406 41.0104C19.607 41.0104 20.0227 41.2327 20.2811 41.6205C20.8988 42.5473 21.9327 43.1006 23.0469 43.1006C24.161 43.1006 25.195 42.5473 25.8126 41.6205C26.071 41.2327 26.4867 41.0104 26.9531 41.0104C27.4195 41.0104 27.8351 41.2327 28.0936 41.6205C28.7113 42.5473 29.7452 43.1006 30.8593 43.1006C31.9735 43.1006 33.0075 42.5473 33.625 41.6205C33.8834 41.2327 34.2992 41.0104 34.7656 41.0104C35.232 41.0104 35.6476 41.2327 35.9061 41.6205C36.5238 42.5473 37.5576 43.1006 38.6718 43.1006C39.786 43.1006 40.8199 42.5473 41.4375 41.6205C41.6921 41.2385 42.1732 41.0104 42.7245 41.0104C43.2758 41.0104 43.7568 41.2385 44.0115 41.6205C44.6292 42.5473 45.7179 43.1006 46.9237 43.1006C48.1296 43.1006 49.2183 42.5473 49.8359 41.6205C50.135 41.1717 50.0137 40.5654 49.5649 40.2663Z" fill="#FFC887"/>
<path d="M29.1162 23.9055C28.686 23.5803 28.0736 23.6655 27.7483 24.0956C27.4231 24.5259 27.5083 25.1384 27.9386 25.4636C29.1742 26.3975 29.8829 27.8178 29.8829 29.3602C29.8828 29.8996 30.32 30.3368 30.8594 30.3368C31.3987 30.3368 31.8359 29.8995 31.8359 29.3602C31.8359 27.2001 30.8446 25.2119 29.1162 23.9055Z" fill="#FFC887"/>
<path d="M25 6.89935C24.4606 6.89935 24.0234 7.33666 24.0234 7.87591V13.7353C24.0234 14.2745 24.4606 14.7118 25 14.7118C25.5393 14.7118 25.9766 14.2745 25.9766 13.7353V7.87591C25.9766 7.33666 25.5393 6.89935 25 6.89935Z" fill="#FFC887"/>
<path d="M9.37497 28.3837H3.51562C2.97627 28.3837 2.53906 28.821 2.53906 29.3602C2.53906 29.8995 2.97627 30.3368 3.51562 30.3368H9.37497C9.91433 30.3368 10.3515 29.8995 10.3515 29.3602C10.3515 28.821 9.91433 28.3837 9.37497 28.3837Z" fill="#FFC887"/>
<path d="M46.4843 28.3837H40.625C40.0856 28.3837 39.6484 28.821 39.6484 29.3602C39.6484 29.8995 40.0856 30.3368 40.625 30.3368H46.4843C47.0237 30.3368 47.4609 29.8995 47.4609 29.3602C47.4609 28.821 47.0237 28.3837 46.4843 28.3837Z" fill="#FFC887"/>
<path d="M44.4523 18.1299C44.1827 17.6627 43.5854 17.5027 43.1183 17.7724L38.0432 20.7021C37.5761 20.9717 37.416 21.5689 37.6856 22.0359C37.9562 22.5046 38.5538 22.6624 39.0196 22.3935L44.0948 19.4638C44.5619 19.1942 44.7219 18.597 44.4523 18.1299Z" fill="#FFC887"/>
<path d="M36.2306 9.90803C35.7635 9.6386 35.1662 9.79846 34.8966 10.2656L31.9669 15.3409C31.6973 15.808 31.8573 16.4052 32.3244 16.6749C32.7901 16.9436 33.3879 16.786 33.6584 16.3173L36.5881 11.242C36.8577 10.7749 36.6976 10.1777 36.2306 9.90803Z" fill="#FFC887"/>
<path d="M18.0334 15.341L15.1037 10.2657C14.8341 9.79862 14.2368 9.63875 13.7697 9.90809C13.3026 10.1778 13.1426 10.775 13.4122 11.2421L16.3419 16.3173C16.6122 16.7857 17.2097 16.9439 17.6759 16.675C18.143 16.4052 18.303 15.8081 18.0334 15.341Z" fill="#FFC887"/>
<path d="M11.9571 20.7021L6.88193 17.7724C6.41485 17.5027 5.81758 17.6627 5.54795 18.1299C5.27833 18.597 5.43838 19.1942 5.90547 19.4638L10.9806 22.3935C11.4457 22.662 12.0437 22.5053 12.3146 22.0359C12.5843 21.5689 12.4242 20.9717 11.9571 20.7021Z" fill="#FFC887"/>
</g>
<defs>
<clipPath id="clip0">
<rect width="50" height="50" fill="white"/>
</clipPath>
</defs>
</svg>
