<svg width="90" height="56" viewBox="0 0 90 56" fill="none" xmlns="http://www.w3.org/2000/svg">
<g clip-path="url(#clip0)">
<path d="M7.50277 14.8752C3.36658 14.8752 0.00292969 18.2389 0.00292969 22.3751C0.00292969 26.5113 3.36658 29.8749 7.50277 29.8749C11.639 29.8749 15.0026 26.5113 15.0026 22.3751C15.0026 18.2389 11.639 14.8752 7.50277 14.8752ZM7.50277 26.1249C5.43283 26.1249 3.75294 24.4412 3.75294 22.3751C3.75294 20.309 5.43283 18.6253 7.50277 18.6253C9.57271 18.6253 11.2526 20.309 11.2526 22.3751C11.2526 24.4412 9.57271 26.1249 7.50277 26.1249Z" fill="#FFC887"/>
<path d="M61.1707 18.6478L57.9271 12.1605C57.6085 11.5268 56.9597 11.1255 56.2509 11.1255H50.6261C50.1274 11.1255 49.6511 11.3243 49.3023 11.673L42.35 18.6253H13.1271C12.0921 18.6253 11.2521 19.4654 11.2521 20.5003C11.2521 21.5277 12.0809 22.3641 13.1007 22.3753C12.212 22.3866 11.4282 23.0315 11.2783 23.9427C11.1058 24.9628 11.7994 25.9302 12.8195 26.099C19.6893 27.2427 31.3851 30.0589 34.0701 32.8226L34.1902 33.0588C37.7338 39.9962 42.1474 48.6247 50.6259 48.6247H76.8751C84.3561 48.6247 89.9998 44.5936 89.9998 39.25C89.9998 33.5724 77.314 19.3154 61.1707 18.6478ZM76.8753 44.8747H50.6259C44.4423 44.8747 40.7675 37.6898 37.5313 31.3526L37.2951 30.895C37.2276 30.7676 37.1451 30.6438 37.0513 30.5313C32.9752 25.7764 15.4218 22.7316 13.4345 22.4015C13.3445 22.3827 13.247 22.3753 13.157 22.3753H43.1261C43.6248 22.3753 44.1011 22.1765 44.4499 21.8278L51.4022 14.8755H55.0921L58.3244 21.3404C58.6431 21.974 59.2919 22.3753 60.0006 22.3753C75.3826 22.3753 86.2498 36.445 86.2498 39.2498C86.25 42.3509 82.0463 44.8747 76.8753 44.8747Z" fill="#FFC887"/>
<path d="M86.2499 37.3708H71.2054C68.7004 37.3708 66.5331 35.7584 65.8131 33.3623L61.7933 19.9564C61.4971 18.9664 60.4509 18.4039 59.4609 18.7001C58.4673 19.0001 57.9048 20.0464 58.2047 21.0363L62.2245 34.4422C63.4245 38.4396 67.0356 41.1245 71.2054 41.1245H86.2499C87.2849 41.1245 88.1249 40.2808 88.1249 39.2458C88.1249 38.2109 87.2849 37.3708 86.2499 37.3708Z" fill="#FFC887"/>
<path d="M11.1135 16.143L7.36369 8.6432C6.9174 7.75447 5.85254 7.36829 4.94132 7.76203L1.13137 9.40448C0.238958 9.78697 -0.211028 10.7919 0.0964041 11.7182L1.97141 17.3431C2.30521 18.3255 3.37006 18.8542 4.34509 18.528C5.3275 18.2017 5.8601 17.1406 5.52999 16.1543L4.19884 12.1643L4.79877 11.9056L7.76112 17.8266C8.09105 18.4828 8.75109 18.8616 9.43732 18.8616C9.71856 18.8616 10.0035 18.7941 10.2735 18.6628C11.1998 18.1979 11.5748 17.0729 11.1135 16.143Z" fill="#FFC887"/>
<path d="M10.2178 26.3199C9.29533 25.8663 8.16667 26.2336 7.70156 27.16L7.46532 27.6288C7.29288 26.7701 6.53529 26.125 5.62793 26.125C4.59296 26.125 3.75293 26.965 3.75293 28V31.7498C3.75293 32.7848 4.59296 33.6248 5.62793 33.6248H7.50294C8.21167 33.6248 8.86046 33.2235 9.18283 32.5862L11.0578 28.8363C11.5191 27.91 11.1441 26.785 10.2178 26.3199Z" fill="#FFC887"/>
<path d="M54.375 -0.124268C53.34 -0.124268 52.5 0.715767 52.5 1.75074V3.62574C52.5 4.66071 53.34 5.50075 54.375 5.50075C55.41 5.50075 56.25 4.66071 56.25 3.62574V1.75074C56.2498 0.715591 55.41 -0.124268 54.375 -0.124268Z" fill="#FFC887"/>
<path d="M88.124 3.62573H54.375C53.34 3.62573 52.5 4.46576 52.5 5.50073C52.5 6.5357 53.34 7.37574 54.375 7.37574H88.124C89.159 7.37574 89.999 6.5357 89.999 5.50073C89.999 4.46576 89.159 3.62573 88.124 3.62573Z" fill="#FFC887"/>
<path d="M54.376 3.62573H20.627C19.592 3.62573 18.752 4.46576 18.752 5.50073C18.752 6.5357 19.592 7.37574 20.627 7.37574H54.376C55.4109 7.37574 56.251 6.5357 56.251 5.50073C56.251 4.46576 55.4109 3.62573 54.376 3.62573Z" fill="#FFC887"/>
<path d="M61.876 44.8745C60.841 44.8745 60.001 45.7145 60.001 46.7495V54.2493C60.001 55.2843 60.841 56.1243 61.876 56.1243C62.911 56.1243 63.751 55.2843 63.751 54.2493V46.7495C63.751 45.7144 62.911 44.8745 61.876 44.8745Z" fill="#FFC887"/>
<path d="M76.875 44.8745C75.84 44.8745 75 45.7145 75 46.7495V54.2493C75 55.2843 75.84 56.1243 76.875 56.1243C77.91 56.1243 78.75 55.2843 78.75 54.2493V46.7495C78.7498 45.7144 77.91 44.8745 76.875 44.8745Z" fill="#FFC887"/>
<path d="M89.0406 48.8643C88.1369 48.358 86.9931 48.6806 86.4869 49.5842C85.5982 51.1704 81.9758 52.1604 80.6258 52.3741H43.127C42.092 52.3741 41.252 53.2142 41.252 54.2491C41.252 55.2841 42.092 56.1241 43.127 56.1241L80.8845 56.1053C81.5783 56.0078 87.7243 55.0516 89.7605 51.4142C90.2668 50.5106 89.9442 49.3705 89.0406 48.8643Z" fill="#FFC887"/>
</g>
<defs>
<clipPath id="clip0">
<rect width="90" height="56" fill="white"/>
</clipPath>
</defs>
</svg>
