<svg width="60" height="60" viewBox="0 0 60 60" fill="none" xmlns="http://www.w3.org/2000/svg">
<path fill-rule="evenodd" clip-rule="evenodd" d="M28.9496 24.8193C28.5591 24.4287 27.9259 24.4287 27.5354 24.8193C27.1449 25.2098 27.1449 25.8429 27.5354 26.2335L31.0716 29.7697L27.5351 33.3062C27.1446 33.6967 27.1446 34.3299 27.5351 34.7204C27.9256 35.1109 28.5588 35.1109 28.9493 34.7204L33.1928 30.4768C33.3034 30.3662 33.3827 30.2362 33.4307 30.0976C33.5521 29.7471 33.4728 29.3424 33.1929 29.0625L28.9496 24.8193Z" fill="white"/>
<path fill-rule="evenodd" clip-rule="evenodd" d="M16.2632 43.1335C18.9204 45.7907 22.3059 47.6003 25.9915 48.3334C29.6772 49.0665 33.4974 48.6903 36.9692 47.2522C40.441 45.8141 43.4084 43.3788 45.4962 40.2543C47.5839 37.1298 48.6982 33.4563 48.6982 29.6985C48.6982 25.9406 47.5839 22.2672 45.4962 19.1426C43.4084 16.0181 40.441 13.5828 36.9692 12.1448C33.4974 10.7067 29.6772 10.3304 25.9915 11.0636C22.3059 11.7967 18.9204 13.6063 16.2632 16.2635L14.849 14.8492C17.7859 11.9123 21.5277 9.91228 25.6013 9.10199C29.6749 8.2917 33.8973 8.70757 37.7346 10.297C41.5718 11.8864 44.8516 14.5781 47.1591 18.0315C49.4666 21.4849 50.6982 25.5451 50.6982 29.6985C50.6982 33.8519 49.4666 37.912 47.1591 41.3655C44.8516 44.8189 41.5718 47.5105 37.7346 49.1C33.8973 50.6894 29.6749 51.1053 25.6013 50.295C21.5277 49.4847 17.7859 47.4846 14.849 44.5477L16.2632 43.1335Z" fill="white" fill-opacity="0.3"/>
</svg>
