<svg width="40" height="40" viewBox="0 0 40 40" fill="none" xmlns="http://www.w3.org/2000/svg">
<path d="M37.6562 18.2452V9.14117C37.6562 5.26414 34.502 2.10992 30.625 2.10992H23.2422C22.8107 2.10992 22.4609 2.45969 22.4609 2.89117C22.4609 3.32266 22.8107 3.67242 23.2422 3.67242H30.625C33.6405 3.67242 36.0938 6.12571 36.0938 9.14117V17.4228C35.5053 17.2205 34.875 17.109 34.2188 17.109H34.0625V12.6298C34.0625 10.9641 32.7073 9.60899 31.0416 9.60899H22.2396C21.3523 9.60899 20.5532 9.99367 20 10.6048C19.4468 9.99367 18.6477 9.60899 17.7604 9.60899H8.95836C7.29266 9.60899 5.9375 10.9641 5.9375 12.6298V17.1089H5.78125C5.125 17.1089 4.49469 17.2204 3.90625 17.4227V9.14117C3.90625 6.12571 6.35953 3.67242 9.375 3.67242H16.9141C17.3455 3.67242 17.6953 3.32266 17.6953 2.89117C17.6953 2.45969 17.3455 2.10992 16.9141 2.10992H9.375C5.49797 2.10992 2.34375 5.26414 2.34375 9.14117V18.2453C0.922813 19.2996 0 20.9891 0 22.8903V32.8903C0 33.3218 0.349766 33.6716 0.78125 33.6716H2.34375V37.1091C2.34375 37.5406 2.69352 37.8903 3.125 37.8903H7.34469C7.77617 37.8903 8.12594 37.5406 8.12594 37.1091V33.6716H31.8741V37.1091C31.8741 37.5406 32.2238 37.8903 32.6553 37.8903H36.875C37.3065 37.8903 37.6562 37.5406 37.6562 37.1091V33.6716H39.2188C39.6502 33.6716 40 33.3218 40 32.8903V22.8903C40 20.989 39.0772 19.2995 37.6562 18.2452ZM20.7812 12.6298C20.7812 11.8256 21.4355 11.1714 22.2396 11.1714H31.0417C31.8459 11.1714 32.5001 11.8256 32.5001 12.6298V17.1089H20.7812V12.6298ZM7.5 12.6298C7.5 11.8256 8.15422 11.1714 8.95836 11.1714H17.7605C18.5646 11.1714 19.2188 11.8256 19.2188 12.6298V17.1089H7.5V12.6298ZM6.56344 36.3277H3.90625V33.6715H6.56344V36.3277ZM36.0938 36.3277H33.4366V33.6715H36.0938V36.3277ZM38.4375 28.359H7.18133C6.74984 28.359 6.40008 28.7088 6.40008 29.1402C6.40008 29.5717 6.74984 29.9215 7.18133 29.9215H38.4375V32.109H36.8939C36.8876 32.1088 36.8814 32.1081 36.875 32.1081H32.6553C32.6489 32.1081 32.6427 32.1088 32.6364 32.109H7.36359C7.35727 32.1088 7.35109 32.1081 7.34469 32.1081H3.125C3.11859 32.1081 3.11242 32.1088 3.10609 32.109H1.5625V22.8902C1.5625 20.564 3.455 18.6715 5.78125 18.6715H6.71875H20H33.2812H34.2188C36.545 18.6715 38.4375 20.564 38.4375 22.8902V28.359Z" fill="#FFC887"/>
<path d="M20.5523 2.33865C20.407 2.19334 20.2055 2.10974 20 2.10974C19.7945 2.10974 19.593 2.19334 19.4477 2.33865C19.3023 2.48396 19.2188 2.68552 19.2188 2.89099C19.2188 3.09646 19.3023 3.29802 19.4477 3.44334C19.593 3.58865 19.7945 3.67224 20 3.67224C20.2055 3.67224 20.407 3.58865 20.5523 3.44334C20.6977 3.29802 20.7812 3.09724 20.7812 2.89099C20.7812 2.68552 20.6977 2.48388 20.5523 2.33865Z" fill="#FFC887"/>
<path d="M4.6207 28.5878C4.47539 28.4425 4.27383 28.3589 4.06836 28.3589C3.86211 28.3589 3.66133 28.4425 3.51602 28.5878C3.3707 28.7331 3.28711 28.9347 3.28711 29.1401C3.28711 29.3456 3.3707 29.5472 3.51602 29.6925C3.66133 29.8378 3.86289 29.9214 4.06836 29.9214C4.27383 29.9214 4.47539 29.8378 4.6207 29.6925C4.76602 29.5472 4.84961 29.3456 4.84961 29.1401C4.84961 28.9347 4.76602 28.7331 4.6207 28.5878Z" fill="#FFC887"/>
</svg>
