<svg width="90" height="66" viewBox="0 0 90 66" fill="none" xmlns="http://www.w3.org/2000/svg">
<g clip-path="url(#clip0)">
<path d="M89.7622 44.4142C89.7613 44.4089 89.7613 44.4035 89.7604 44.3982L89.7594 44.3978C89.2953 41.5386 88.1754 38.8966 86.558 36.6325L86.5633 36.6264C86.5325 36.5833 86.4984 36.5436 86.4643 36.5038C84.5019 33.806 81.8307 31.6556 78.7257 30.3301C78.7032 30.191 78.6656 30.0525 78.6078 29.9171L72.9083 16.6184C70.3269 10.5953 64.4247 6.7033 57.8718 6.7033H55.3711V4.17188C55.3711 1.65188 53.3208 -0.398438 50.8008 -0.398438H37.793C35.273 -0.398438 33.2227 1.65188 33.2227 4.17188V6.70348H32.1281C25.5751 6.70348 19.6729 10.5955 17.0916 16.6184L11.392 29.9171C11.334 30.0525 11.2966 30.191 11.2741 30.3301C4.65275 33.157 0 39.7329 0 47.3756V58.7347C0 59.7056 0.786973 60.4925 1.75781 60.4925H12.77C13.7241 63.8951 16.8518 66.3984 20.555 66.3984C24.2582 66.3984 27.3857 63.8951 28.34 60.4925H61.3313C62.2853 63.8951 65.4128 66.3984 69.116 66.3984C72.8191 66.3984 75.9466 63.8951 76.901 60.4925H88.2422C89.213 60.4925 90 59.7056 90 58.7347V47.3756C90 46.3676 89.9179 45.3789 89.7622 44.4142ZM84.1841 39.4055C84.8684 40.4925 85.42 41.6709 85.8096 42.9211H81.5964C80.6272 42.9211 79.8386 42.1325 79.8386 41.1633C79.8386 40.194 80.6272 39.4055 81.5964 39.4055H84.1841ZM57.8719 10.2191C63.0167 10.2191 67.6505 13.2747 69.6779 18.0055L74.4275 29.088C73.4662 28.9335 72.4806 28.8519 71.4763 28.8519H46.7801V10.2191H57.8719ZM36.7383 4.17188C36.7383 3.59021 37.2113 3.11719 37.793 3.11719H50.8008C51.3824 3.11719 51.8555 3.59021 51.8555 4.17188V6.63281H36.7383V4.17188ZM20.3229 18.0034C22.3495 13.2747 26.9833 10.2191 32.1281 10.2191H43.2645V28.8519H18.5237C17.5194 28.8519 16.5338 28.9335 15.5725 29.088L20.3229 18.0034ZM20.555 62.8828C18.035 62.8828 15.9847 60.8325 15.9847 58.3125C15.9847 55.7925 18.035 53.7422 20.555 53.7422C23.075 53.7422 25.1253 55.7925 25.1253 58.3125C25.1253 60.8325 23.075 62.8828 20.555 62.8828ZM28.5288 56.9769C27.8898 53.1519 24.5584 50.2266 20.555 50.2266C16.5516 50.2266 13.22 53.1519 12.5812 56.9769H9.74127C10.4022 51.5955 14.9978 47.4141 20.555 47.4141C26.1121 47.4141 30.7078 51.5955 31.3687 56.9769H28.5288ZM69.116 62.8828C66.596 62.8828 64.5456 60.8325 64.5456 58.3125C64.5456 55.7925 66.596 53.7422 69.116 53.7422C71.636 53.7422 73.6863 55.7925 73.6863 58.3125C73.6863 60.8325 71.6361 62.8828 69.116 62.8828ZM77.0897 56.9769C76.451 53.1519 73.1196 50.2266 69.116 50.2266C65.1125 50.2266 61.781 53.1519 61.1423 56.9769H58.3024C58.9634 51.5955 63.559 47.4141 69.116 47.4141C74.6729 47.4141 79.2687 51.5955 79.9297 56.9769H77.0897ZM86.4844 56.9769H83.4659C82.7895 49.653 76.6134 43.8984 69.116 43.8984C61.6185 43.8984 55.4425 49.653 54.7661 56.9769H46.78V45.6562C46.78 44.6854 45.993 43.8984 45.0221 43.8984C44.0513 43.8984 43.2643 44.6854 43.2643 45.6562V56.9769H34.9045C34.2283 49.653 28.0522 43.8984 20.555 43.8984C13.0577 43.8984 6.88148 49.653 6.20508 56.9769H3.51562V47.3756C3.51562 39.1001 10.2482 32.3677 18.5237 32.3677H71.4763C75.1579 32.3677 78.532 33.7026 81.1459 35.9106C78.4484 36.1402 76.323 38.4076 76.323 41.1635C76.323 44.0712 78.6887 46.4369 81.5964 46.4369H86.452C86.4714 46.7477 86.4844 47.0602 86.4844 47.3757V56.9769Z" fill="#FFC887"/>
<path d="M56.4708 37.043H52.4502C51.4794 37.043 50.6924 37.8299 50.6924 38.8008C50.6924 39.7716 51.4794 40.5586 52.4502 40.5586H56.4708C57.4417 40.5586 58.2286 39.7716 58.2286 38.8008C58.2286 37.8299 57.4417 37.043 56.4708 37.043Z" fill="#FFC887"/>
<path d="M22.5006 37.043H19.2598C18.2889 37.043 17.502 37.8299 17.502 38.8008C17.502 39.7716 18.2889 40.5586 19.2598 40.5586H22.5006C23.4715 40.5586 24.2585 39.7716 24.2585 38.8008C24.2585 37.8299 23.4715 37.043 22.5006 37.043Z" fill="#FFC887"/>
<path d="M46.2662 37.558C45.9393 37.2311 45.4857 37.043 45.0234 37.043C44.5594 37.043 44.1076 37.2311 43.7807 37.558C43.452 37.885 43.2656 38.3385 43.2656 38.8008C43.2656 39.2631 43.452 39.7166 43.7807 40.0436C44.1076 40.3705 44.5611 40.5586 45.0234 40.5586C45.4857 40.5586 45.9375 40.3705 46.2662 40.0436C46.5932 39.7166 46.7812 39.2631 46.7812 38.8008C46.7812 38.3385 46.5932 37.885 46.2662 37.558Z" fill="#FFC887"/>
</g>
<defs>
<clipPath id="clip0">
<rect width="90" height="66" fill="white"/>
</clipPath>
</defs>
</svg>
