<svg width="16" height="16" viewBox="0 0 16 16" fill="none" xmlns="http://www.w3.org/2000/svg">
<g clip-path="url(#clip0)">
<path d="M15.9859 6.17979C15.9521 6.07612 15.8625 6.00051 15.7545 5.98476L10.5736 5.23183L8.25669 0.53725C8.20858 0.439303 8.10891 0.377441 8.00008 0.377441C7.89125 0.377441 7.7913 0.439303 7.74347 0.53725L5.42625 5.23211L0.245377 5.98505C0.137407 6.0008 0.0480517 6.07612 0.0139707 6.18008C-0.0195374 6.28347 0.00824285 6.39745 0.0864285 6.47335L3.83562 10.1277L2.95037 15.288C2.93204 15.3954 2.97615 15.5039 3.06407 15.5681C3.15257 15.6328 3.2697 15.6411 3.36565 15.5899L8.00008 13.1538L12.6339 15.5899C12.6758 15.6119 12.7219 15.6228 12.7674 15.6228C12.8267 15.6228 12.8857 15.6045 12.9358 15.5681C13.024 15.5039 13.0681 15.3954 13.0495 15.288L12.1645 10.128L15.9137 6.47335C15.9916 6.39688 16.0197 6.28318 15.9859 6.17979Z" fill="#CECECE"/>
</g>
<defs>
<clipPath>
<rect width="16" height="16" fill="white"/>
</clipPath>
</defs>
</svg>
