<svg width="25" height="26" viewBox="0 0 25 26" fill="none" xmlns="http://www.w3.org/2000/svg">
<g clip-path="url(#clip0)">
<path d="M15.7908 10.8366C15.3827 10.8038 14.9943 10.7886 14.6243 10.7886C14.2421 10.7886 13.8805 10.8054 13.5364 10.8366L13.5944 8.79478C14.4664 8.82947 15.4491 8.99678 16.5591 9.33214L23.8826 2.79771C20.0374 1.40023 16.7773 0.803467 14.0338 0.803467C-0.259835 0.803467 -0.555885 16.9957 3.04979 20.4887L6.80497 15.5926C6.80497 15.5926 6.94077 12.5912 8.83137 10.5748L9.65917 12.204C7.19717 14.0545 7.21621 17.0635 7.21621 17.0635V23.6974H12.4248L15.5498 25.7781H20.7576L20.7591 23.705L20.0175 22.8849C20.0175 22.8849 14.3542 21.6807 16.5675 18.4613C16.9779 17.8653 17.4128 17.6214 17.8492 17.6214C19.765 17.6214 21.7212 22.2935 21.8196 22.2935C21.8204 22.2935 21.8204 22.2935 21.8204 22.2935C21.931 22.2661 21.0277 16.2099 21.0277 16.2099C21.0277 16.2099 20.4738 11.2097 15.7908 10.8366ZM6.7935 11.7276C6.08704 13.1498 5.86194 14.5651 5.79329 15.2L3.08104 18.7357C2.65076 17.8653 2.33942 16.6687 2.21813 15.3486C2.20593 15.2237 2.19675 15.0971 2.1884 14.9714C2.46535 14.9592 2.68587 14.7313 2.68587 14.4523C2.68587 14.1649 2.45241 13.9325 2.16476 13.9325C2.16325 13.9325 2.16095 13.9325 2.15866 13.9325C2.16325 13.2268 2.21891 12.5195 2.32346 11.8229C2.35017 11.8259 2.37688 11.829 2.40359 11.829C2.69124 11.829 2.92469 11.5961 2.92469 11.3088C2.92469 11.0596 2.7492 10.8515 2.51423 10.8004C2.67981 10.0626 2.90027 9.34545 3.17572 8.66405C3.24286 8.69566 3.31761 8.71361 3.39696 8.71361C3.68456 8.71361 3.91728 8.48079 3.91728 8.19343C3.91728 7.98041 3.7891 7.79749 3.60522 7.71705C3.91342 7.10843 4.2667 6.53918 4.66114 6.01744C4.70694 5.95724 4.75269 5.89817 4.79923 5.83949C4.88927 5.91495 5.00597 5.96066 5.13263 5.96066C5.42028 5.96066 5.65373 5.72744 5.65373 5.44008C5.65373 5.28877 5.58811 5.15273 5.48513 5.05746C5.91316 4.61654 6.37855 4.21831 6.87675 3.86734C7.01025 3.7732 7.14682 3.68291 7.28491 3.59525C7.37495 3.75188 7.54351 3.85744 7.73731 3.85744C8.02418 3.85744 8.25763 3.62462 8.25763 3.33731C8.25763 3.24546 8.234 3.1597 8.19201 3.08463C8.81609 2.77478 9.48368 2.52289 10.1901 2.32855C10.2489 2.55186 10.4518 2.71688 10.6937 2.71688C10.9813 2.71688 11.2147 2.48367 11.2147 2.19631C11.2147 2.16163 11.2109 2.12773 11.2048 2.09495C11.922 1.96002 12.6765 1.87964 13.4662 1.85334C13.4715 2.13651 13.7027 2.3644 13.9873 2.3644C14.2726 2.3644 14.5037 2.135 14.5075 1.85032C15.1804 1.86783 15.8778 1.92271 16.598 2.01383C16.5934 2.04012 16.5911 2.06641 16.5911 2.09348C16.5911 2.38084 16.8238 2.61367 17.1122 2.61367C17.3747 2.61367 17.5913 2.41933 17.6272 2.16704C18.9677 2.39455 20.3807 2.7421 21.8585 3.20858L16.2921 8.17514C15.211 7.89124 14.191 7.7472 13.2526 7.7472C11.6305 7.7472 10.2161 8.17021 9.04876 9.00478C8.11949 9.6694 7.3604 10.5855 6.7935 11.7276ZM9.63778 9.86368C10.3923 9.31994 11.346 8.92854 12.5514 8.81878L12.4896 10.9871C11.7404 11.138 11.0972 11.3675 10.5457 11.6502L9.63778 9.86368ZM17.8493 16.5818C16.814 16.5818 16.1143 17.283 15.7092 17.8722C15.2156 18.5909 14.7281 19.7006 15.2118 20.9124C15.5963 21.8758 16.5133 22.6761 17.937 23.2919C18.5421 23.5541 19.1112 23.7248 19.4576 23.8178L19.717 24.1044V24.737H15.8648L13.0023 22.8316L12.7399 22.6562H12.4248H8.25758V17.0635V17.0597V17.0559C8.25758 17.0513 8.26291 16.5467 8.44372 15.8631C8.61691 15.2115 8.98694 14.2709 9.76972 13.4829C10.8615 12.3854 12.495 11.829 14.6243 11.829C14.9714 11.829 15.3361 11.8442 15.7077 11.874C16.5675 11.9418 17.3182 12.204 17.9401 12.6522C18.4444 13.015 18.877 13.5073 19.2248 14.1155C19.8421 15.1932 19.9855 16.2717 19.9924 16.3265L19.9939 16.3403L19.9969 16.3639C20.0694 16.847 20.1419 17.3425 20.2128 17.8303C19.5034 17.0726 18.7198 16.5818 17.8493 16.5818Z" fill="white"/>
</g>
<defs>
<clipPath id="clip0">
<rect width="25" height="24.9746" fill="white" transform="translate(0 0.803467)"/>
</clipPath>
</defs>
</svg>
