<svg width="40" height="40" viewBox="0 0 40 40" fill="none" xmlns="http://www.w3.org/2000/svg">
<path d="M32.8855 0H7.11359C6.34875 0 5.72656 0.622187 5.72656 1.38703V38.613C5.72656 39.3778 6.34875 40 7.11359 40H32.8855C33.6503 40 34.2725 39.3778 34.2725 38.613V1.38703C34.2725 0.622187 33.6502 0 32.8855 0ZM32.9302 38.613C32.9302 38.6376 32.9101 38.6577 32.8854 38.6577H7.11359C7.08891 38.6577 7.06883 38.6376 7.06883 38.613V1.38703C7.06883 1.36242 7.08891 1.34227 7.11359 1.34227H32.8855C32.9102 1.34227 32.9302 1.36242 32.9302 1.38703V38.613H32.9302Z" fill="#FFC887"/>
<path d="M28.1434 10.5736C28.0039 10.3169 27.7212 10.1883 27.448 10.2318L27.448 10.2313L23.4584 10.8675L22.9516 10.1008L23.8609 9.24283C23.9759 9.13447 24.0488 8.98893 24.067 8.83197L24.1363 8.23526C24.5368 8.48072 24.9173 8.76244 25.2725 9.07947C25.5489 9.32627 25.9732 9.30236 26.2201 9.02588C26.4669 8.7494 26.443 8.3251 26.1665 8.07822C24.4684 6.56205 22.2785 5.72705 20 5.72705C14.893 5.72705 10.7383 9.8819 10.7383 14.9888C10.7383 16.9689 11.3544 18.8578 12.5199 20.4514C12.6514 20.631 12.8554 20.7264 13.0622 20.7264C13.1997 20.7264 13.3384 20.6843 13.4579 20.5969C13.757 20.3781 13.8222 19.9581 13.6034 19.659C12.607 18.297 12.0805 16.682 12.0805 14.9888C12.0805 14.8933 12.0828 14.7983 12.0861 14.7035L15.9902 16.3664L16.3931 18.1599C16.444 18.3864 16.6084 18.5705 16.8276 18.6467L17.902 19.02L19.1912 21.7621C19.3055 22.0053 19.547 22.1479 19.7991 22.1479C19.8947 22.1479 19.9919 22.1274 20.0841 22.0839C20.4196 21.9263 20.5637 21.5265 20.4059 21.191L20.088 20.5147L21.5087 17.2956C21.635 17.0096 21.547 16.6743 21.2966 16.4871L18.9923 14.7646C18.8242 14.6388 18.6066 14.599 18.4048 14.6571L16.6132 15.1728L16.3825 15.0745L17.803 13.7496C17.908 13.6516 17.9789 13.5224 18.005 13.3811L18.6326 9.99776L18.9296 9.95627C19.2966 9.90502 19.5526 9.56572 19.5013 9.19869C19.4501 8.83166 19.1112 8.57541 18.7437 8.62697L15.8494 9.03182L15.132 8.74651C16.4759 7.69611 18.1661 7.06939 20 7.06939C20.9873 7.06939 21.9549 7.25346 22.8584 7.60299L22.7619 8.4344L21.6199 9.5119C21.3826 9.7358 21.3407 10.0979 21.5206 10.3702L22.3321 11.5978L21.7582 14.4384C21.6876 14.7872 21.9017 15.1303 22.246 15.2206L24.4776 15.805L26.543 19.4454C25.1158 21.5345 22.7154 22.9084 19.9999 22.9084C18.3213 22.9084 16.7178 22.3901 15.3626 21.4095C15.0623 21.1922 14.6427 21.2595 14.4254 21.5597C14.2081 21.86 14.2754 22.2796 14.5757 22.4969C16.1613 23.6442 18.0369 24.2506 19.9998 24.2506C25.1068 24.2506 29.2616 20.0958 29.2616 14.9889C29.2617 13.4471 28.8751 11.9203 28.1434 10.5736ZM18.4559 16.0392L20.0652 17.2423L19.3312 18.905L18.9966 18.1931C18.9197 18.0296 18.7802 17.904 18.6095 17.8447L17.6209 17.5013L17.363 16.3536L18.4559 16.0392ZM15.5184 10.3447C15.5976 10.3761 15.6816 10.3921 15.7663 10.3921C15.7973 10.3921 15.8284 10.3901 15.8593 10.3857L17.2311 10.1938L16.7257 12.9189L15.0316 14.4992L12.2585 13.3181C12.548 11.9755 13.1787 10.7586 14.0552 9.76283L15.5184 10.3447ZM27.2999 18.0592L25.5054 14.8963C25.416 14.7388 25.2668 14.6241 25.0917 14.5781L23.1994 14.0826L23.5783 12.2076L27.1754 11.634C27.6631 12.6777 27.9194 13.828 27.9194 14.9888C27.9194 16.077 27.6988 17.1145 27.2999 18.0592Z" fill="#FFC887"/>
<path d="M19.9293 32.7015L18.4975 27.6903C18.4151 27.4022 18.1518 27.2036 17.8522 27.2036H17.1363C16.8366 27.2036 16.5733 27.4023 16.491 27.6903L15.0592 32.7015C14.9574 33.0579 15.1637 33.4294 15.5201 33.5312C15.8765 33.6331 16.248 33.4267 16.3498 33.0703L16.6198 32.1253H18.3686L18.6386 33.0703C18.7229 33.3651 18.9916 33.5572 19.2836 33.5572C19.3447 33.5572 19.4068 33.5488 19.4683 33.5312C19.8247 33.4294 20.0312 33.0579 19.9293 32.7015ZM17.0034 30.783L17.4943 29.0649L17.9853 30.783H17.0034Z" fill="#FFC887"/>
<path d="M23.0935 29.7499C22.1696 29.4129 22.1029 29.2309 22.1029 28.971C22.1029 28.7976 22.3992 28.5459 22.8636 28.5459C23.3279 28.5459 23.6242 28.7976 23.6242 28.971C23.6242 29.3416 23.9246 29.6421 24.2954 29.6421C24.6661 29.6421 24.9665 29.3417 24.9665 28.971C24.9665 27.9799 24.0429 27.2036 22.8636 27.2036C21.6844 27.2036 20.7607 27.9799 20.7607 28.971C20.7607 30.328 21.9792 30.7722 22.6338 31.0109C23.5576 31.3477 23.6243 31.5298 23.6243 31.7898C23.6243 31.9631 23.3281 32.2149 22.8637 32.2149C22.3993 32.2149 22.1031 31.9631 22.1031 31.7898C22.1031 31.4192 21.8026 31.1186 21.4319 31.1186C21.0613 31.1186 20.7607 31.4191 20.7607 31.7898C20.7607 32.7808 21.6844 33.5571 22.8636 33.5571C24.0429 33.5571 24.9665 32.7809 24.9665 31.7898C24.9664 30.4328 23.7481 29.9885 23.0935 29.7499Z" fill="#FFC887"/>
<path d="M28.1052 29.7499C27.1814 29.4129 27.1146 29.2309 27.1146 28.971C27.1146 28.7976 27.4109 28.5459 27.8753 28.5459C28.3396 28.5459 28.6359 28.7976 28.6359 28.971C28.6359 29.3416 28.9364 29.6421 29.3071 29.6421C29.6778 29.6421 29.9782 29.3417 29.9782 28.971C29.9782 27.9799 29.0546 27.2036 27.8754 27.2036C26.6961 27.2036 25.7725 27.9799 25.7725 28.971C25.7725 30.328 26.9909 30.7722 27.6455 31.0109C28.5693 31.3477 28.6361 31.5298 28.6361 31.7898C28.6361 31.9631 28.3398 32.2149 27.8754 32.2149C27.4111 32.2149 27.1148 31.9631 27.1148 31.7898C27.1148 31.4192 26.8143 31.1186 26.4436 31.1186C26.073 31.1186 25.7725 31.4191 25.7725 31.7898C25.7725 32.7808 26.6961 33.5571 27.8754 33.5571C29.0546 33.5571 29.9782 32.7809 29.9782 31.7898C29.9782 30.4328 28.7598 29.9885 28.1052 29.7499Z" fill="#FFC887"/>
<path d="M12.4833 27.2036H11.4095C11.0388 27.2036 10.7383 27.5041 10.7383 27.8748V32.886C10.7383 33.2566 11.0387 33.5571 11.4095 33.5571C11.7801 33.5571 12.0806 33.2567 12.0806 32.886V32.1253H12.4833C13.8402 32.1253 14.9441 31.0214 14.9441 29.6645C14.9441 28.3075 13.8402 27.2036 12.4833 27.2036ZM12.4833 30.783H12.0806V28.5459H12.4833C13.1001 28.5459 13.6019 29.0476 13.6019 29.6645C13.6019 30.2813 13.1002 30.783 12.4833 30.783Z" fill="#FFC887"/>
</svg>
