<svg width="24" height="24" viewBox="0 0 24 24" fill="none" xmlns="http://www.w3.org/2000/svg">
<path d="M12 24C5.3835 24 0 18.6165 0 12C0 5.3835 5.3835 0 12 0C18.6165 0 24 5.3835 24 12C24 18.6165 18.6165 24 12 24ZM12 1.5C6.21 1.5 1.5 6.21 1.5 12C1.5 17.79 6.21 22.5 12 22.5C17.79 22.5 22.5 17.79 22.5 12C22.5 6.21 17.79 1.5 12 1.5Z" fill="#FFC887"/>
<path d="M14.577 8.0745C14.019 7.6935 13.404 7.5 12.75 7.5C11.3685 7.5 10.1715 8.412 9.52199 9.75H12C12.414 9.75 12.75 10.086 12.75 10.5C12.75 10.914 12.414 11.25 12 11.25H9.063C9.0285 11.4945 9 11.7435 9 12C9 12.2565 9.0285 12.5055 9.063 12.75H12.75C13.164 12.75 13.5 13.086 13.5 13.5C13.5 13.914 13.164 14.25 12.75 14.25H9.52199C10.1715 15.588 11.3685 16.5 12.75 16.5C13.404 16.5 14.019 16.3065 14.577 15.9255C14.919 15.693 15.387 15.7785 15.6195 16.122C15.8535 16.464 15.765 16.9305 15.423 17.1645C14.622 17.7105 13.698 18 12.75 18C10.5525 18 8.6715 16.4445 7.89 14.25H6.75C6.336 14.25 6 13.914 6 13.5C6 13.086 6.336 12.75 6.75 12.75H7.566C7.539 12.501 7.5 12.2565 7.5 12C7.5 11.7435 7.539 11.499 7.566 11.25H6.75C6.336 11.25 6 10.914 6 10.5C6 10.086 6.336 9.75 6.75 9.75H7.89C8.6715 7.5555 10.5525 6 12.75 6C13.698 6 14.622 6.2895 15.423 6.8355C15.765 7.0695 15.8535 7.536 15.6195 7.878C15.387 8.22 14.919 8.307 14.577 8.0745Z" fill="#FFC887"/>
</svg>
