<svg width="60" height="60" viewBox="0 0 60 60" fill="none" xmlns="http://www.w3.org/2000/svg">
<path fill-rule="evenodd" clip-rule="evenodd" d="M31.8614 24.819C31.4709 24.4285 30.8377 24.4285 30.4472 24.819L26.2039 29.0623C25.975 29.2912 25.8803 29.6035 25.9198 29.9014C25.9308 29.9847 25.9523 30.0668 25.9843 30.1457C26.0331 30.2661 26.1063 30.3789 26.204 30.4766L30.4475 34.7201C30.8381 35.1107 31.4712 35.1107 31.8617 34.7201C32.2523 34.3296 32.2523 33.6965 31.8617 33.3059L29.2542 30.6983H57.9824C58.5347 30.6983 58.9824 30.2506 58.9824 29.6983C58.9824 29.1461 58.5347 28.6983 57.9824 28.6983H29.3963L31.8614 26.2332C32.2519 25.8427 32.2519 25.2095 31.8614 24.819Z" fill="white"/>
<path fill-rule="evenodd" clip-rule="evenodd" d="M43.1333 43.1335C40.4761 45.7907 37.0906 47.6003 33.405 48.3334C29.7193 49.0665 25.8991 48.6903 22.4273 47.2522C18.9555 45.8141 15.9881 43.3788 13.9003 40.2543C11.8126 37.1298 10.6983 33.4563 10.6983 29.6985C10.6983 25.9406 11.8126 22.2672 13.9003 19.1426C15.9881 16.0181 18.9555 13.5828 22.4273 12.1448C25.8991 10.7067 29.7193 10.3304 33.405 11.0636C37.0906 11.7967 40.4761 13.6063 43.1333 16.2635L44.5475 14.8492C41.6106 11.9123 37.8687 9.91228 33.7951 9.10199C29.7215 8.2917 25.4991 8.70757 21.6619 10.297C17.8247 11.8864 14.5449 14.5781 12.2374 18.0315C9.92988 21.4849 8.69825 25.5451 8.69825 29.6985C8.69825 33.8519 9.92988 37.912 12.2374 41.3655C14.5449 44.8189 17.8246 47.5105 21.6619 49.1C25.4991 50.6894 29.7215 51.1053 33.7951 50.295C37.8687 49.4847 41.6106 47.4846 44.5475 44.5477L43.1333 43.1335Z" fill="white"/>
</svg>
