<svg width="40" height="40" viewBox="0 0 40 40" fill="none" xmlns="http://www.w3.org/2000/svg">
<path d="M38.4701 16.0255L37.5983 15.1024L34.5385 6.85457C34.0171 5.46141 32.6838 4.53833 31.1966 4.52979H9.34188C7.8547 4.52979 6.52137 5.46141 6 6.85457L2.98291 14.9999L1.7265 16.1623C0.632479 17.0939 0 18.4614 0 19.8973V31.9144C0.00854701 33.8802 1.60684 35.47 3.57265 35.47H5.82906C7.79487 35.47 9.39316 33.8802 9.40171 31.9144V30.1708H30.5983V31.9144C30.6068 33.8802 32.2051 35.47 34.1709 35.47H36.4274C38.3932 35.47 39.9915 33.8802 40 31.9144V19.5811C39.9915 18.2392 39.4444 16.9571 38.4701 16.0255ZM7.60684 7.43577C7.88034 6.70927 8.57265 6.23919 9.34188 6.23919H31.2051C31.9744 6.23919 32.6667 6.71782 32.9402 7.43577L35.6068 14.6153H33.6154C33.1453 11.4101 30.1624 9.19645 26.9573 9.67508C24.4017 10.0512 22.3932 12.0597 22.0171 14.6153H4.94017L7.60684 7.43577ZM31.8718 14.6153H23.7436C24.2137 12.3674 26.4188 10.9315 28.6667 11.4016C30.2735 11.7435 31.5299 12.9999 31.8718 14.6153ZM7.69231 31.9144C7.68376 32.94 6.8547 33.7606 5.82906 33.7606H3.57265C2.54701 33.7606 1.71795 32.94 1.7094 31.9144V29.6751C2.22222 30.0084 2.89744 30.1708 3.57265 30.1708H7.69231V31.9144ZM38.2906 31.9144C38.2821 32.94 37.453 33.7606 36.4274 33.7606H34.1709C33.1453 33.7606 32.3162 32.9315 32.3077 31.9144V30.1708H36.4274C37.1026 30.1708 37.7778 30.0084 38.2906 29.6751V31.9144ZM36.4274 28.4614H3.57265C2.55556 28.47 1.71795 27.658 1.7094 26.6324V19.8973C1.7094 18.9571 2.12821 18.0597 2.84615 17.4529C2.8547 17.4443 2.87179 17.4272 2.88034 17.4187L4.04274 16.3247H36.4103L37.2308 17.205C37.2393 17.2221 37.265 17.2306 37.2735 17.2477C37.9145 17.8546 38.2821 18.7007 38.2821 19.5811V26.6324H38.2906C38.2821 27.6494 37.4444 28.47 36.4274 28.4614Z" fill="#FFC887"/>
<path d="M11.2816 19.7437H4.8713C4.40122 19.7437 4.0166 20.1283 4.0166 20.5984V25.0428C4.0166 25.5129 4.40122 25.8975 4.8713 25.8975H11.2816C11.7516 25.8975 12.1363 25.5129 12.1363 25.0428V20.5984C12.1363 20.1283 11.7516 19.7437 11.2816 19.7437ZM10.4269 24.1881H5.726V21.4531H10.4269V24.1881Z" fill="#FFC887"/>
<path d="M35.1282 19.7437H28.718C28.2479 19.7437 27.8633 20.1283 27.8633 20.5984V25.0428C27.8633 25.5129 28.2479 25.8975 28.718 25.8975H35.1282C35.5983 25.8975 35.9829 25.5129 35.9829 25.0428V20.5984C35.9829 20.1283 35.5983 19.7437 35.1282 19.7437ZM34.2735 24.1881H29.5727V21.4531H34.2735V24.1881Z" fill="#FFC887"/>
<path d="M24.1277 23.3335H15.8713C15.4012 23.3335 15.0166 23.7181 15.0166 24.1882C15.0166 24.6583 15.4012 25.0429 15.8713 25.0429H24.1277C24.5978 25.0429 24.9824 24.6583 24.9824 24.1882C24.9824 23.7181 24.5978 23.3335 24.1277 23.3335Z" fill="#FFC887"/>
<path d="M24.1277 20.6836H15.8713C15.4012 20.6836 15.0166 21.0682 15.0166 21.5383C15.0166 22.0084 15.4012 22.393 15.8713 22.393H24.1277C24.5978 22.393 24.9824 22.0084 24.9824 21.5383C24.9824 21.0682 24.5978 20.6836 24.1277 20.6836Z" fill="#FFC887"/>
</svg>
