<svg width="25" height="25" viewBox="0 0 25 25" fill="none" xmlns="http://www.w3.org/2000/svg">
<g clip-path="url(#clip0)">
<path d="M12.4989 19.2166C8.79514 19.2166 5.78223 16.2037 5.78223 12.5C5.78223 8.7955 8.79514 5.78259 12.4989 5.78259C16.2026 5.78259 19.2155 8.79622 19.2155 12.5C19.2162 16.2037 16.2026 19.2166 12.4989 19.2166ZM12.4989 6.49995C9.19112 6.49995 6.49959 9.19149 6.49959 12.5C6.49959 15.8077 9.19112 18.4992 12.4989 18.4992C15.8066 18.4992 18.4982 15.8077 18.4982 12.5C18.4989 9.19149 15.8073 6.49995 12.4989 6.49995Z" fill="white"/>
<path d="M12.4993 3.57389C12.3013 3.57389 12.1406 3.4132 12.1406 3.21521V0.35868C12.1406 0.160689 12.3013 0 12.4993 0C12.6973 0 12.858 0.160689 12.858 0.35868V3.21521C12.858 3.41392 12.698 3.57389 12.4993 3.57389Z" fill="white"/>
<path d="M12.4993 25C12.3013 25 12.1406 24.8393 12.1406 24.6414V21.7848C12.1406 21.5868 12.3013 21.4261 12.4993 21.4261C12.6973 21.4261 12.858 21.5868 12.858 21.7848V24.6414C12.858 24.8393 12.698 25 12.4993 25Z" fill="white"/>
<path d="M3.21521 12.8587H0.35868C0.160689 12.8587 0 12.698 0 12.5C0 12.302 0.160689 12.1414 0.35868 12.1414H3.21449C3.41248 12.1414 3.57317 12.302 3.57317 12.5C3.57317 12.698 3.4132 12.8587 3.21521 12.8587Z" fill="white"/>
<path d="M24.641 12.8587H21.7845C21.5865 12.8587 21.4258 12.698 21.4258 12.5C21.4258 12.302 21.5865 12.1414 21.7845 12.1414H24.641C24.839 12.1414 24.9997 12.302 24.9997 12.5C24.9997 12.698 24.839 12.8587 24.641 12.8587Z" fill="white"/>
<path d="M5.93559 6.29199C5.84376 6.29199 5.75194 6.25684 5.68164 6.18726L3.66155 4.16861C3.52167 4.02872 3.52167 3.80132 3.66155 3.66143C3.80144 3.52155 4.02884 3.52155 4.16873 3.66143L6.18881 5.68008C6.3287 5.81997 6.3287 6.04737 6.18881 6.18726C6.11923 6.25756 6.02741 6.29199 5.93559 6.29199Z" fill="white"/>
<path d="M21.086 21.444C20.9942 21.444 20.9023 21.4089 20.832 21.3393L18.8119 19.3185C18.6721 19.1786 18.6721 18.9512 18.8119 18.8113C18.9518 18.6714 19.1792 18.6714 19.3191 18.8113L21.3392 20.8321C21.4791 20.972 21.4791 21.1994 21.3392 21.3393C21.2696 21.4089 21.1778 21.444 21.086 21.444Z" fill="white"/>
<path d="M3.9155 21.444C3.82368 21.444 3.73186 21.4089 3.66155 21.3393C3.52167 21.1994 3.52167 20.972 3.66155 20.8321L5.68164 18.8113C5.82153 18.6714 6.04893 18.6714 6.18881 18.8113C6.3287 18.9512 6.3287 19.1786 6.18881 19.3185L4.16873 21.3393C4.09843 21.4089 4.0066 21.444 3.9155 21.444Z" fill="white"/>
<path d="M19.0659 6.29199C18.9741 6.29199 18.8822 6.25684 18.8119 6.18726C18.6721 6.04737 18.6721 5.81997 18.8119 5.68008L20.832 3.66143C20.9719 3.52155 21.1993 3.52155 21.3392 3.66143C21.4791 3.80132 21.4791 4.02872 21.3392 4.16861L19.3191 6.18726C19.2495 6.25756 19.1577 6.29199 19.0659 6.29199Z" fill="white"/>
</g>
<defs>
<clipPath>
<rect width="25" height="25" fill="white"/>
</clipPath>
</defs>
</svg>
