<svg width="36" height="33" viewBox="0 0 36 33" fill="none" xmlns="http://www.w3.org/2000/svg">
<path d="M18 20.6491C19.1977 20.6491 20.1719 19.783 20.1719 18.7184C20.1719 17.6539 19.1977 16.7878 18 16.7878C16.8023 16.7878 15.8281 17.6539 15.8281 18.7184C15.8281 19.783 16.8023 20.6491 18 20.6491Z" fill="white"/>
<path d="M36 11.7367C36 10.6721 35.0257 9.80616 33.8281 9.80616C32.6304 9.80616 31.6561 10.6721 31.6561 11.7367C31.6561 12.082 31.7599 12.4057 31.9394 12.6865L29.9794 14.4287C29.3949 13.2059 29.1084 11.3204 29.031 9.87878C29.6418 9.53669 30.0496 8.93354 30.0496 8.24581C30.0496 7.1813 29.0753 6.31525 27.8777 6.31525C26.68 6.31525 25.7057 7.1813 25.7057 8.24581C25.7057 8.72559 25.9049 9.16401 26.2318 9.50211C24.9634 11.444 23.1924 13.3131 22.0932 14.3966C21.1272 12.6049 20.0381 9.03967 19.3627 6.2561C19.8556 5.90194 20.1719 5.36085 20.1719 4.7549C20.1719 3.69028 19.1977 2.82434 18 2.82434C16.8023 2.82434 15.8281 3.69028 15.8281 4.7549C15.8281 5.36085 16.1444 5.90194 16.6373 6.2561C15.9623 9.03988 14.8732 12.6057 13.9067 14.3972C12.8081 13.3147 11.0379 11.4471 9.76812 9.50211C10.0952 9.16401 10.2942 8.72559 10.2942 8.24581C10.2942 7.1813 9.32 6.31525 8.1223 6.31525C6.92473 6.31525 5.95042 7.1813 5.95042 8.24581C5.95042 8.93397 6.35855 9.53712 6.9697 9.8791C6.89345 11.3206 6.60727 13.206 6.02133 14.4294L4.06061 12.6866C4.24 12.4058 4.34376 12.0821 4.34376 11.7368C4.34376 10.6722 3.36958 9.80627 2.17188 9.80627C0.974303 9.80616 0 10.6722 0 11.7367C0 12.5168 0.524121 13.1886 1.27503 13.4929C2.04497 16.9685 3.06461 21.954 3.06461 23.0822V28.3186C3.06461 28.9028 3.59745 29.3765 4.25455 29.3765H31.7455C32.4028 29.3765 32.9355 28.9028 32.9355 28.3186V23.0822C32.9355 21.9542 33.9549 16.9686 34.7253 13.4929C35.4759 13.1886 36 12.5169 36 11.7367ZM5.37661 16.8485C5.84145 17.2615 6.59479 17.2615 7.05976 16.8485C8.18933 15.8442 8.76752 14.0431 9.06327 12.4263C10.9886 14.844 13.1101 16.7408 13.2312 16.8485C13.696 17.2615 14.4493 17.2615 14.9143 16.8485C16.1131 15.7828 17.2118 12.8642 18 10.2635C18.7882 12.8642 19.8869 15.7829 21.0857 16.8485C21.309 17.0468 21.6116 17.1583 21.9273 17.1583C22.2429 17.1583 22.5456 17.0468 22.7687 16.8485C22.8898 16.7408 25.0113 14.844 26.9366 12.4263C27.2325 14.0431 27.8105 15.8442 28.9401 16.8485C29.4051 17.2615 30.1584 17.2615 30.6233 16.8485L31.8042 15.7987C31.3624 17.9004 30.8527 20.465 30.6478 22.0245H5.35212C5.14715 20.4649 4.63745 17.9004 4.19576 15.7987L5.37661 16.8485ZM30.5554 27.2607H5.44461V24.14H30.5554V27.2607Z" fill="white"/>
</svg>
