<svg width="25" height="25" viewBox="0 0 25 25" fill="none" xmlns="http://www.w3.org/2000/svg">
<g clip-path="url(#clip0)">
<path d="M9.57031 20.6054C9.97482 20.6054 10.3027 20.2775 10.3027 19.873C10.3027 19.4685 9.97482 19.1406 9.57031 19.1406C9.16581 19.1406 8.83789 19.4685 8.83789 19.873C8.83789 20.2775 9.16581 20.6054 9.57031 20.6054Z" fill="white"/>
<path d="M12.5 20.6054C12.9045 20.6054 13.2324 20.2775 13.2324 19.873C13.2324 19.4685 12.9045 19.1406 12.5 19.1406C12.0955 19.1406 11.7676 19.4685 11.7676 19.873C11.7676 20.2775 12.0955 20.6054 12.5 20.6054Z" fill="white"/>
<path d="M15.4297 20.6054C15.8342 20.6054 16.1621 20.2775 16.1621 19.873C16.1621 19.4685 15.8342 19.1406 15.4297 19.1406C15.0252 19.1406 14.6973 19.4685 14.6973 19.873C14.6973 20.2775 15.0252 20.6054 15.4297 20.6054Z" fill="white"/>
<path d="M18.3594 20.6054C18.7639 20.6054 19.0918 20.2775 19.0918 19.873C19.0918 19.4685 18.7639 19.1406 18.3594 19.1406C17.9549 19.1406 17.627 19.4685 17.627 19.873C17.627 20.2775 17.9549 20.6054 18.3594 20.6054Z" fill="white"/>
<path d="M21.2891 20.6054C21.6936 20.6054 22.0215 20.2775 22.0215 19.873C22.0215 19.4685 21.6936 19.1406 21.2891 19.1406C20.8846 19.1406 20.5566 19.4685 20.5566 19.873C20.5566 20.2775 20.8846 20.6054 21.2891 20.6054Z" fill="white"/>
<path d="M0.732648 25.0007C1.13714 25.0007 1.46506 24.6728 1.46506 24.2683V23.5359H3.66231C4.0668 23.5359 4.39473 23.208 4.39473 22.8035V19.1414H5.12714C5.531 19.1414 5.85956 19.4699 5.85956 19.8738V22.8035C5.85956 23.3937 6.10097 23.9497 6.53934 24.3687C6.96566 24.7763 7.52195 25.0007 8.10564 25.0007H18.3595C22.0211 25.0007 25 22.0437 25 18.409C25 14.895 22.2282 12.0211 18.8203 11.7847L17.5497 9.24362C17.4257 8.99547 17.1721 8.83874 16.8946 8.83874H16.1622V5.83202C17.3521 6.03051 18.5493 5.76269 19.5347 5.10571C20.6227 4.38042 22.0286 4.38037 23.1167 5.10576C23.3761 5.27866 23.6534 5.42607 23.9411 5.54394C24.3156 5.69735 24.7432 5.51821 24.8965 5.14389C25.0499 4.76958 24.8707 4.34185 24.4965 4.18848C24.2986 4.10743 24.1078 4.00596 23.9292 3.88692C22.3476 2.83253 20.3037 2.83253 18.7222 3.88692C17.9528 4.39981 17.0246 4.54951 16.1622 4.33711V1.46575H16.8946C17.2991 1.46575 17.627 1.13782 17.627 0.733332C17.627 0.328843 17.2991 0.000915527 16.8946 0.000915527H15.4297C15.0253 0.000915527 14.6973 0.328843 14.6973 0.733332V3.6254C13.1902 2.84147 11.3707 2.92853 9.93316 3.88687C8.84728 4.61074 7.38826 4.61074 6.30238 3.88687C4.7208 2.83248 2.67697 2.83248 1.09529 3.88687C0.898907 4.01783 0.687971 4.12725 0.46849 4.21211C0.0911493 4.35801 -0.096398 4.78208 0.0494993 5.15937C0.195348 5.53661 0.619563 5.72436 0.996709 5.57836C1.31594 5.45493 1.62248 5.29584 1.90783 5.10561C2.99586 4.38032 4.40186 4.38032 5.48979 5.10561C7.0616 6.1535 9.17379 6.1535 10.7457 5.10561C11.8337 4.38032 13.2397 4.38032 14.3276 5.10561C14.4482 5.18598 14.5717 5.25952 14.6973 5.32763V8.83864H13.2325V6.64139C13.2325 6.2369 12.9045 5.90897 12.5 5.90897C12.0955 5.90897 11.7676 6.2369 11.7676 6.64139V8.83864H11.0352C10.7578 8.83864 10.5042 8.99538 10.3801 9.24352L9.11774 11.7683H7.25071C6.91038 10.0988 5.43071 8.83864 3.66221 8.83864C3.25773 8.83864 2.9298 9.16657 2.9298 9.57105V11.8419C1.26038 12.1822 0.000134456 13.6619 0.000134456 15.4304C0.000134456 17.2336 1.28885 18.7262 2.9298 19.0662V22.071H1.46497V21.3385C1.46497 20.934 1.13704 20.6061 0.732551 20.6061C0.328062 20.6061 0.000134456 20.934 0.000134456 21.3385V24.2682C0.000232112 24.6728 0.328159 25.0007 0.732648 25.0007ZM11.488 10.3036H16.442L17.1744 11.7684H10.7555L11.488 10.3036ZM3.66231 13.2332C4.0668 13.2332 4.39473 12.9053 4.39473 12.5008V10.4291C5.24731 10.7313 5.85956 11.5459 5.85956 12.5008C5.85956 12.9053 6.18749 13.2332 6.59198 13.2332H18.3555C18.357 13.2332 18.3585 13.2334 18.36 13.2334C18.3607 13.2334 18.3614 13.2333 18.3621 13.2332C19.7608 13.234 21.0314 13.7926 21.9634 14.698H1.59104C1.89338 13.8456 2.70749 13.2332 3.66231 13.2332ZM1.5905 16.1629H23.0219C23.3507 16.8426 23.5352 17.6046 23.5352 18.409C23.5352 21.236 21.2133 23.5359 18.3594 23.5359H8.10559C7.68943 23.5359 7.32434 23.1937 7.32434 22.8035V19.8738C7.32434 18.6622 6.33866 17.6766 5.1271 17.6766H3.66226C2.72082 17.6766 1.89533 17.0336 1.5905 16.1629Z" fill="white"/>
</g>
<defs>
<clipPath id="clip0">
<rect width="25" height="25" fill="white"/>
</clipPath>
</defs>
</svg>
