<svg width="105" height="32" fill="none" xmlns="http://www.w3.org/2000/svg"><g clip-path="url(#clip0)"><path fill-rule="evenodd" clip-rule="evenodd" d="M10.432 6.579c.109-.23.28-.415.248-.769-.373-.061-1.29-.476-1.305.2.342.215.482.63 1.057.569zm12.732-.707c.171-.185.264-.446.28-.769-.342-.092-1.415-.415-1.306.17.031.214.684.66 1.026.599zm11.909-2.89c-1.4-.369-3.436-.215-4.99-.276.124-.923.575-1.553.823-2.367-.28-.216-.59-.461-1.041-.308-.575.892-1.042 1.814-1.524 2.72-.404.062-.855.062-1.275.108-1.15.123-2.098.461-3.093.753-.156.046-.311.093-.498.062.529 1.153 2.488.937 3.964.66-.217.385-.124.754-.435 1.061-.109 1-.466 1.799-.606 2.613.124-.338.389-.722.575-.907-.124.323-.186.692-.264 1.06-.28.14-.467.37-.793.462-.73.645-1.617 1.076-2.44 1.645-.452.307-.934.568-1.509.599-.078-.354.187-.646.28-.968.031-.123 0-.277.047-.4.062-.17.186-.292.233-.43.17-.584.17-1.291.466-1.722-.28-.292-.808-.507-1.337-.323-.357.477-.497 1.138-.73 1.737-.918.523-2.037.876-3.203 1.184-.202-.615-1.275-.661-1.306-1.368-.015-.507.964-.953 1.321-1.245.296-.261.545-.338.483-.707-.545-.215-.902-.63-1.586-.6-.171.462-.747.554-.793 1.122-.078 0-.109-.061-.171.016-.295.522-.808.999-1.275 1.475-.497.154-.777.492-1.213.692-.746.645-1.616 1.06-2.44 1.598-.467.308-.949.615-1.54.646-.077-.338.218-.661.312-1.03.03-.107-.016-.23.015-.323.062-.169.187-.307.233-.476.11-.369.094-.815.233-1.184.047-.153.265-.292.234-.476-.047-.292-.964-.553-1.337-.354-.358.538-.56 1.215-.747 1.906-.715.461-2.083 1.03-3.016.569-.03-.292.032-.507-.015-.815-.264-.076-.498-.353-.777-.322-.234.03-.28.338-.545.353-.202.584-.575 1.015-.932 1.46-.078.308-.28.569-.451.815-.171.23-.342.538-.622.692.062-.63.155-1.322.249-2.03.14-1.09.497-2.35-.062-3.258C1.29 6.61.125 7.04 0 7.793c-.062.323.078.815.093 1.137.016.415.016.907.016 1.399 0 .676-.171 1.383-.124 1.937.03.43.217 1.214.404 1.414.109.123.808.43.98.43.201.015.403-.17.59-.061.622-.508.933-1.276 1.446-1.876.466-.26.715-.707 1.057-1.075.56.338 1.617.153 2.176.046.11-.031.265 0 .358-.016.45-.123.715-.446.964-.569-.047.539 0 1.046.31 1.353.296.307 1.105.569 1.649.553.528-.015.964-.307 1.399-.43a54.525 54.525 0 0 0 4.135-3.366c.264.676.778 1.06 1.213 1.568-.653.415-1.462.922-1.959 1.552-.155.2-.575.569-.513.876.062.246.84.63 1.166.646.326.03.715-.092 1.073-.261.668-.308 1.477-.846 1.74-1.4.11-.23.125-.553.125-.814.746-.446 1.85-.753 2.472-1.214-.109.569-.078 1.168.218 1.522.295.353 1.166.645 1.756.614.529-.03.933-.322 1.369-.43.093-.061.155-.169.248-.246.747-.569 1.586-1.107 2.208-1.66-.031.738.047 1.66.233 2.336.124.446.249.63.42.892.093.138.109.323.186.415.296.369 1.057.615 1.57.43.405-.153.747-.63.871-1.06-.155.23-.466.538-.84.4-.512-.17-.948-2.122-.652-2.906 0 0 .015.016.03-.03.343-1.338.405-2.89.856-3.997.062-.691.218-1.537.637-1.998 1.633-.338 3.25-.491 5.068-.645-.015-.015.14-.138.125-.277zm-19.34 9.268c.311-.338.73-.6 1.135-.845-.031.461-.606.707-1.135.845z" fill="#DD0C2F"/><path d="M34.995 19.074c-1.477-2.213-4.058-3.673-7.229-3.673-3.855 0-6.81 2.167-8.022 5.21a8.475 8.475 0 0 0-.59 3.09c0 4.626 3.544 8.299 8.596 8.299 5.084 0 8.629-3.673 8.629-8.3 0-1.706-.482-3.304-1.384-4.626zm-7.229 8.7c-2.347 0-3.902-1.922-3.902-4.074 0-1.583.886-3.09 2.316-3.735a3.746 3.746 0 0 1 1.586-.338c.295 0 .575.031.84.093 1.88.4 3.047 2.151 3.047 3.98.015 2.152-1.508 4.073-3.887 4.073zM77.033 23.7c0-.707.17-1.398.513-1.998.653-1.199 1.959-2.075 3.855-2.075 1.882 0 3.25.569 4.12 1.015v-4.196c-1.12-.569-2.534-1.045-4.586-1.045-4.493 0-7.789 2.95-8.473 6.808a9.481 9.481 0 0 0-.124 1.491c0 4.627 3.544 8.3 8.38 8.3 1.943 0 3.808-.415 4.928-1v-4.256c-.949.46-2.441 1.014-4.478 1.014-2.69.015-4.135-1.906-4.135-4.058zM103.617 19.074c-1.477-2.213-4.058-3.673-7.229-3.673-3.855 0-6.81 2.167-8.022 5.21a8.473 8.473 0 0 0-.59 3.09c0 4.626 3.544 8.299 8.597 8.299 5.083 0 8.628-3.673 8.628-8.3a8.283 8.283 0 0 0-1.384-4.626zm-7.245 8.7c-2.347 0-3.902-1.922-3.902-4.074 0-1.583.886-3.09 2.317-3.735a3.747 3.747 0 0 1 1.585-.338c.296 0 .576.031.84.093 1.881.4 3.047 2.151 3.047 3.98.016 2.152-1.508 4.073-3.886 4.073zM8.224 22.056L.187 15.508H.078v16.169h4.446v-7.362l3.7 2.951 3.67-2.95V31.676h4.477V15.508h-.125l-8.022 6.548zM48.723 22.886l-9.235-7.378h-.218v16.169h4.556v-7.162l.652.507 8.629 6.87h.202V15.723h-4.586v7.163zM63.786 15.508h-.217l-4.058 8.008-4.135 8.161h4.866l.98-2.105h4.912l1.01 2.105h4.835l-4.54-8.96-3.652-7.209zM62.512 26.56c.404-.938 1.01-2.398 1.135-2.966h.046c.14.568.746 2.044 1.135 2.966h-2.316z" fill="#DD0C2F"/><path d="M11.894 31.677h4.477v-3.811l-4.477.445v3.366zM39.27 31.677h4.556V25.1l-4.556.461v6.117zM.078 31.677h4.446V29.05l-4.446.446v2.182zM53.107 31.892h.202v-7.746l-8.83.876 8.628 6.87zM55.361 31.677h4.866l.98-2.105h4.912l1.01 2.105h4.851l-4.54-8.96-7.943.799-4.136 8.161zm8.287-8.084h.046c.14.568.746 2.044 1.135 2.966h-2.332c.42-.938 1.026-2.398 1.15-2.966zM72.322 23.7c0 4.627 3.545 8.3 8.38 8.3 1.943 0 3.809-.415 4.928-.999v-4.258c-.948.462-2.44 1.015-4.477 1.015-2.659 0-4.12-1.921-4.12-4.073 0-.707.17-1.399.513-1.998l-5.084.507c-.093.507-.14 1-.14 1.506zM100.275 23.7c0 2.152-1.524 4.073-3.903 4.073-2.347 0-3.902-1.92-3.902-4.073 0-1.583.886-3.089 2.317-3.735l-6.437.646a8.474 8.474 0 0 0-.59 3.09c0 4.626 3.544 8.299 8.597 8.299 5.084 0 8.628-3.673 8.628-8.3a8.275 8.275 0 0 0-1.384-4.626l-6.39.645c1.898.4 3.064 2.137 3.064 3.981zM27.767 32c4.26 0 7.43-2.582 8.348-6.133l-5.395.538c-.684.83-1.694 1.368-2.953 1.368-.949 0-1.773-.307-2.41-.83l-5.317.538C21.393 30.171 24.19 32 27.767 32z" fill="#9D1422"/></g><defs><clipPath id="clip0"><path fill="#fff" d="M0 0h105v32H0z"/></clipPath></defs></svg>